<svg width="1360" height="888" viewBox="0 0 1360 888" fill="none" xmlns="http://www.w3.org/2000/svg">
<path d="M1199.93 590.952L1198.7 592.178L1198.02 592.723H1197.75V592.995V593.132L1197.62 593.268H1197.48H1197.34L1197.21 593.404H1197.07L1197.21 592.587V592.178L1196.94 592.042L1196.53 591.906L1196.12 591.633H1195.98L1195.44 591.77L1195.3 591.633L1195.17 591.497L1195.58 591.361L1197.21 589.999H1197.62L1198.02 589.863L1198.16 589.727L1198.43 589.59L1198.84 589.454L1198.98 589.182L1199.11 589.046L1199.93 588.773L1200.34 589.727L1199.93 590.952ZM1125.81 521.901L1127.58 520.675L1128.39 519.858L1129.07 518.905L1129.89 517.951L1131.11 517.406L1132.06 517.27L1134.1 517.543L1135.06 517.406L1138.46 514.41H1139.82L1141.04 514.819L1141.58 515.227L1141.99 515.636L1144.3 516.044L1152.46 515.5L1147.98 521.765L1148.25 522.173L1151.1 522.582L1151.65 522.854L1153.69 524.897L1154.23 525.306L1155.05 525.442L1156.27 525.714L1157.09 526.123L1158.58 527.213L1161.85 529.119L1162.94 529.392L1164.57 528.983L1169.19 524.625L1171.5 521.084L1172.86 519.858L1179.39 516.453L1185.24 514.41L1187.42 517.679L1189.05 520.675L1189.73 521.765L1190 521.901L1190.14 520.267L1190.54 519.994H1191.36L1193.26 520.948L1194.22 521.356H1195.03L1195.3 521.084H1196.12H1197.34L1201.02 522.446L1201.83 522.854L1202.51 523.535L1203.06 524.625L1206.05 528.711L1206.59 528.983L1207.27 529.256L1208.9 529.528L1210.4 529.256L1212.44 529.119L1215.84 530.209L1220.19 531.162L1221.42 531.026L1222.23 530.073L1222.91 529.392L1223.86 530.073L1225.36 532.252L1225.9 532.66H1226.72L1230.39 533.886L1231.48 534.703V535.248V535.793V536.883L1231.21 538.653L1231.07 540.424L1231.21 541.649V541.922L1230.94 541.786H1230.26H1229.98L1229.71 542.058L1229.58 542.194H1229.44L1229.3 542.058L1229.03 541.922L1228.9 541.786V541.377V540.968L1227.94 541.105V541.377L1227.81 541.649L1227.67 541.786L1227.26 542.058L1226.99 542.33L1226.58 542.603L1226.18 543.148L1225.5 543.692L1224.95 544.101L1224.54 544.373L1224.27 544.646L1223.86 544.782V544.918L1224.14 545.19L1224.27 545.327L1224.14 545.463H1224L1223.59 545.735L1223.05 546.008L1222.91 546.416L1222.64 546.825V546.961V547.233H1222.91H1223.18L1222.64 547.506L1221.96 548.459L1221.69 549.685H1221.55L1221.28 549.549L1221.14 549.821L1220.87 549.957L1220.74 550.094H1220.46H1220.33L1220.06 550.638L1219.78 551.319L1219.65 551.728L1219.38 551.864H1219.1L1218.97 552.137L1218.83 552.273L1218.97 552.545L1218.83 552.681L1218.7 552.817L1218.42 553.09H1218.15L1218.02 553.362L1217.88 553.498L1217.61 553.635L1217.34 553.771L1217.06 553.907L1216.93 554.179L1216.66 554.316L1216.52 554.452L1216.25 554.588L1216.11 554.86L1215.7 555.133L1215.57 555.269L1215.43 555.405V555.541V555.678L1215.3 555.814V555.95H1215.02L1214.89 556.086H1214.75L1214.62 556.222L1214.34 556.359L1213.94 556.631L1213.53 556.903L1213.12 557.176L1212.71 557.584V557.721L1212.3 557.993L1211.9 559.355L1212.44 560.717L1213.8 561.67L1214.89 562.215V562.351L1214.62 562.624L1214.48 562.896L1214.34 563.032L1214.21 563.168L1214.07 563.305L1213.94 563.441V563.577V563.849H1213.8H1213.53L1213.26 563.713L1212.85 563.577L1212.44 563.441L1212.17 563.305L1211.76 563.441L1211.35 563.577L1211.08 563.713L1211.49 563.986L1212.03 564.258H1212.3L1212.58 564.394L1212.98 564.667V564.803H1212.85L1212.03 565.075L1210.54 564.939L1210.4 564.667L1210.26 564.53L1210.13 564.258V564.122V563.986L1209.99 563.849V563.577L1209.86 563.441H1209.72V563.577L1209.58 563.713L1209.45 563.577H1209.18L1208.9 563.441H1208.63L1208.36 563.305H1208.09H1207.95L1207.82 563.168H1207.68H1207.54H1207.41L1207.27 563.032H1206.86H1206.59H1206.32L1206.18 563.168L1206.05 563.305L1205.91 563.441H1205.78H1205.64H1205.5H1205.37H1205.23L1204.96 563.577L1204.82 563.713H1204.55L1204.42 563.849L1204.01 563.986V564.258H1203.6L1201.42 566.573L1200.06 569.57L1199.52 570.387L1199.25 570.523V570.659L1198.98 570.795L1198.84 570.932L1198.57 571.068H1198.3L1197.89 571.204H1197.75H1197.62H1197.34L1197.07 571.476L1196.8 571.613L1196.66 572.021L1196.53 572.294L1196.26 572.43V572.838L1196.12 573.111L1195.58 573.383V573.247V573.111L1195.44 572.702V572.566V572.157L1195.58 572.021L1195.44 571.749L1195.3 571.34L1195.17 571.204V571.34H1195.03L1194.9 571.204L1194.62 571.068L1194.49 570.932V570.795L1194.22 570.659H1194.08H1193.81L1193.67 570.523H1193.4L1193.13 570.387L1192.99 570.251L1192.72 570.114L1192.45 569.978L1192.31 569.842H1192.45H1192.58L1192.72 569.57L1192.45 569.433L1192.31 569.297H1192.18L1191.9 569.161H1191.63L1191.5 569.025V568.48L1191.77 568.752L1191.9 568.889V569.161H1192.45L1192.72 569.297H1192.86H1193.13L1193.26 569.433L1193.4 569.297H1193.54V569.161V569.025L1193.4 568.752V568.48V568.344H1193.54H1193.81L1194.08 568.616L1194.35 568.752V568.616V568.48V568.344L1194.08 568.071L1193.94 567.663L1193.81 567.391L1193.67 566.982L1193.54 566.71V566.573V566.301V566.165L1193.81 565.756V565.484L1193.67 564.667L1193.54 564.122L1193.26 563.986L1192.86 563.849L1192.58 563.577L1192.45 563.441V563.305V563.168V562.76V562.215V562.079L1192.18 562.215H1192.04H1191.77L1191.5 562.079H1190.95L1190.68 562.215H1190.41H1190.27L1190 562.351L1189.86 562.487L1189.46 562.624L1189.32 562.76H1188.91H1188.5H1188.23H1188.1L1188.23 563.032V563.305L1188.37 563.441V563.577L1187.28 564.53L1186.87 566.301L1186.74 567.799L1186.33 567.663V567.527L1186.19 567.254L1186.06 567.118H1185.78H1185.65L1185.51 566.982L1185.38 567.118H1185.24V567.254V567.391L1184.97 567.254H1184.7H1184.42V567.391H1184.29H1184.02H1183.88L1183.34 567.254L1182.52 566.846L1181.98 566.71L1181.84 566.573H1181.7H1181.43H1181.16L1180.62 566.437L1180.48 566.301L1180.21 566.029L1180.07 565.892L1180.34 565.756L1180.48 565.62L1180.62 565.348V565.211L1180.48 564.939L1180.34 564.803L1180.48 564.667V564.53L1180.34 564.258L1180.21 563.986V563.713L1180.07 563.305L1180.21 562.896V562.487V562.351L1180.07 562.215L1179.94 562.079L1179.8 561.806L1179.53 561.67L1179.39 561.534L1179.26 561.806H1178.98H1178.71H1178.3H1178.03H1177.9L1177.62 561.67L1177.35 561.534H1176.94H1176.4H1176.26L1175.86 561.398L1175.31 561.262L1174.9 561.125L1174.22 560.853L1173.68 560.444L1173.27 560.172L1172.86 559.9L1172.46 559.491L1172.32 559.355L1172.05 559.083L1171.78 558.674L1171.5 558.538H1171.37L1171.1 558.674H1170.96H1170.82H1170.42H1170.28L1169.87 558.81H1169.74H1169.33L1169.6 558.674L1170.14 558.402L1170.28 558.129L1170.42 557.857H1170.01H1169.46H1169.33L1169.06 557.721H1168.78H1168.65H1168.51L1168.38 557.993V558.129L1167.97 558.265L1167.7 558.129L1167.56 557.993V557.857L1167.42 557.721H1167.15L1166.88 557.584L1166.74 557.721L1166.61 557.993V558.265L1166.47 558.538L1166.2 558.674L1166.06 558.81L1165.79 558.674L1165.52 558.538L1165.11 558.129L1164.84 557.857L1164.7 557.584L1164.57 557.312V557.176L1164.7 557.04V556.767V556.631L1164.57 556.495V556.359V556.222V556.086L1164.43 555.95L1164.16 555.678L1163.75 555.541L1163.62 555.405L1163.34 555.541L1163.21 555.678L1162.94 555.814L1162.8 555.95L1162.39 556.222L1162.26 556.359H1161.98L1161.85 556.495L1161.71 556.631V556.767V556.903H1161.58H1161.17L1160.9 557.04V556.903L1161.03 556.767L1161.17 556.631H1161.44V556.359L1161.58 556.222V556.086V555.95L1161.44 555.814H1161.3L1160.76 555.541L1160.49 555.405H1159.94L1159.67 555.269L1159.13 555.133H1158.58L1158.18 554.997H1157.9H1157.5L1156.95 555.269H1156.41L1155.86 555.678L1155.46 555.814L1155.32 555.95L1155.05 556.086H1154.91L1154.64 556.222H1154.23L1153.96 556.086H1153.55H1153.42L1153.01 555.95H1152.74H1152.6L1152.33 556.086V556.222L1151.92 556.495L1151.51 556.903L1151.24 557.176L1150.97 557.584L1150.7 557.857L1150.29 558.129L1149.74 558.674L1149.34 558.946L1149.06 559.355L1148.66 559.764L1148.38 559.9L1148.11 560.036L1147.57 560.172H1147.43L1147.16 560.308H1146.89L1146.62 560.444H1146.48L1146.21 560.581L1146.07 560.717L1145.94 560.853H1145.66L1145.26 560.581L1144.58 560.172H1144.17L1143.9 560.308L1143.49 560.444L1143.35 560.581L1142.94 560.717L1142.67 560.853H1142.13H1141.72H1141.18L1140.9 560.717L1140.63 560.853H1140.5V561.125V561.534L1140.63 561.943L1140.77 562.624L1140.9 562.76L1141.31 563.168L1141.58 563.441L1141.72 563.849L1140.36 565.348L1138.86 565.075L1132.47 565.756L1122.27 568.889L1119.14 569.161L1116.15 568.889L1113.16 566.846L1111.94 562.896L1110.98 558.402L1109.08 555.269L1107.45 554.588L1106.09 554.724L1104.73 555.269L1103.1 555.405L1101.6 554.86L1098.06 553.362L1099.02 549.957L1098.74 549.549L1098.2 548.868L1098.06 548.732L1097.11 547.37L1096.98 547.097L1096.84 546.689L1096.7 544.646L1097.93 542.875L1100.1 541.377L1105 540.287L1105.68 540.015L1106.36 539.062L1108.13 536.065L1109.08 535.112L1110.17 534.567L1111.26 534.295L1112.34 533.75L1113.16 533.069L1115.74 529.8L1120.1 526.259L1121.18 525.17L1122.27 524.489L1122.82 524.08L1124.04 523.808L1124.31 523.535L1124.45 522.991L1124.58 522.582L1125.81 521.901ZM1143.76 572.975L1143.9 572.838L1145.53 573.928L1146.75 576.243L1147.84 578.831L1149.06 580.329L1150.83 581.555V581.963L1150.7 582.236L1150.97 582.781L1151.1 583.189L1151.51 583.598L1151.65 584.006V584.143L1151.78 584.687V585.096V585.368L1151.65 585.777L1151.78 585.913V586.049L1151.92 586.186V586.322L1152.06 586.458L1152.33 586.594L1152.74 586.458L1153.01 586.322L1153.28 586.049L1153.42 585.505L1153.69 585.368H1153.96H1154.37H1154.64L1154.91 585.232H1155.18H1155.59H1156L1156.27 585.096L1156.54 584.96L1156.68 584.687L1156.82 584.551H1157.22L1157.63 584.415L1157.9 584.143L1158.31 584.006V584.143L1158.18 584.551L1157.77 585.368L1157.63 585.913L1157.5 586.186L1157.36 586.322L1156.95 586.594L1156.68 586.73V586.867L1156.54 587.003L1156.41 587.139L1156.14 587.275L1156 587.411L1155.73 587.548H1155.59H1155.32H1154.78H1154.64H1154.1H1153.96L1153.82 587.684V587.82L1154.23 588.092L1154.5 588.229L1154.91 588.365L1155.18 588.501L1155.46 588.773V589.046L1155.32 589.59L1155.18 590.271V590.408L1154.91 590.544L1154.64 590.816H1154.37L1154.23 590.952L1153.82 591.089L1153.55 591.225L1153.28 591.361L1153.14 591.633L1153.28 591.77L1153.55 591.906L1153.96 591.77L1154.78 591.906H1155.18H1155.59H1156.41L1157.22 592.042L1158.18 592.995L1158.31 593.268L1158.58 593.54L1159.26 594.221V594.766H1159.13H1158.99V594.902V595.038H1158.86H1158.72H1158.58L1158.72 595.175L1158.99 595.447L1159.13 595.719V595.856L1158.86 595.992H1158.58H1158.18H1157.9H1157.77L1157.5 596.264V596.4L1157.63 596.537L1157.77 596.673V596.809L1157.5 597.217L1157.36 597.354L1157.09 597.626L1156.68 597.762H1156.41H1156H1155.86L1155.73 598.035L1155.32 598.443L1155.18 598.307L1155.05 598.171H1154.78L1154.5 598.307H1154.37L1154.1 598.171H1153.82H1153.69L1153.14 598.307L1152.87 598.443L1152.74 598.307V598.171L1152.6 597.762V597.354L1152.87 597.081L1153.14 596.537L1152.87 596.128L1152.46 595.583L1152.06 595.038L1151.78 595.175H1151.51L1151.1 595.719V595.856V596.264V596.4L1150.83 596.537L1150.7 596.4V596.128L1150.56 595.992L1150.42 596.4V596.809V596.945L1150.29 597.081V597.217V597.354V597.626L1150.42 597.762L1150.56 597.898V598.035L1150.42 598.171V598.443H1150.29L1150.15 598.307L1150.02 598.035V597.762L1149.88 597.626V597.49L1149.74 597.217H1149.34H1149.2L1148.66 597.354H1148.38H1148.11L1147.43 597.217L1147.16 597.354H1147.02L1147.16 596.945L1147.57 596.537V596.128L1147.7 595.856L1147.84 595.719L1148.11 595.447L1148.52 595.311L1148.79 595.175L1148.93 595.038L1148.79 594.766L1148.93 594.357V593.813L1149.2 593.268L1149.61 592.723L1149.74 592.451L1150.02 592.178L1150.15 592.042H1150.42H1150.7L1151.1 591.906L1151.65 591.633H1151.92L1152.06 591.361V591.089L1151.92 590.816L1151.65 590.544L1151.24 590.408H1151.1L1150.83 590.271L1150.7 590.135L1150.56 589.999V589.863V589.59L1150.42 589.318L1150.15 589.046V588.91L1149.88 588.637V588.365L1150.15 588.092L1150.42 587.956L1150.56 587.684H1150.83L1150.97 587.82L1150.83 588.092L1151.1 588.229L1151.38 588.365L1151.51 588.229L1151.65 588.092L1151.78 587.684L1151.65 587.411V586.73L1151.51 586.322L1151.38 586.049L1150.97 585.777H1150.42L1150.15 585.641H1149.74H1149.47H1149.2H1148.66H1148.25H1147.98H1147.43H1147.02H1146.62L1146.34 585.505L1145.8 584.824L1145.39 584.551L1145.12 584.143L1144.71 583.734L1144.3 583.462L1144.17 583.053V582.781V582.372V582.1L1144.03 581.555V581.283V581.01L1143.9 580.738V580.602L1143.76 580.329L1143.9 579.921V579.24V579.103L1144.03 578.695L1144.17 578.15L1144.3 577.605V577.197L1144.58 576.652V576.243V575.971L1144.44 575.562L1144.3 575.018L1144.17 574.473L1143.9 573.383L1143.76 572.975Z" fill="#E6E6E6"/>
<path d="M1191.9 569.161L1192.18 569.297H1192.31L1192.45 569.433L1192.72 569.57L1192.58 569.842H1192.45H1192.31L1192.45 569.978L1192.72 570.114L1192.99 570.251L1193.13 570.387L1193.4 570.523H1193.67L1193.81 570.659H1194.08H1194.22L1194.49 570.795V570.932L1194.62 571.068L1194.9 571.204L1195.03 571.34H1195.17V571.204L1195.3 571.34L1195.44 571.749L1195.58 572.021L1195.44 572.157V572.566V572.702L1195.58 573.111V573.247V573.383L1196.12 573.111L1196.26 572.838V572.43L1196.53 572.294L1196.66 572.021L1196.8 571.613L1197.07 571.476L1197.34 571.204H1197.62H1197.75H1197.89L1198.3 571.068H1198.57L1198.84 570.932L1198.98 570.795L1199.25 570.659V570.523L1199.52 570.387L1200.06 569.57L1201.42 566.573L1203.6 564.258H1204.01V563.986L1204.42 563.849L1204.55 563.713H1204.82L1204.96 563.577L1205.23 563.441H1205.37H1205.5H1205.64H1205.78H1205.91L1206.05 563.305L1206.18 563.168L1206.32 563.032H1206.59H1206.86H1207.27L1207.41 563.168H1207.54H1207.68H1207.82L1207.95 563.305H1208.09H1208.36L1208.63 563.441H1208.9L1209.18 563.577H1209.45L1209.58 563.713L1209.72 563.577V563.441H1209.86L1209.99 563.577V563.849L1210.13 563.986V564.122V564.258L1210.26 564.53L1210.4 564.667L1210.54 564.939L1212.03 565.075L1212.85 564.803H1212.98V564.667L1212.58 564.394L1212.3 564.258H1212.03L1211.49 563.986L1211.08 563.713L1211.35 563.577L1211.76 563.441L1212.17 563.305L1212.44 563.441L1212.85 563.577L1213.26 563.713L1213.53 563.849H1213.8H1213.94V563.577V563.441L1214.07 563.305L1214.21 563.168L1214.34 563.032L1214.48 562.896L1214.62 562.624L1214.89 562.351V562.215L1213.8 561.67L1212.44 560.717L1211.9 559.355L1212.3 557.993L1212.71 557.721V557.584L1213.12 557.176L1213.53 556.903L1213.94 556.631L1214.34 556.359L1214.62 556.222L1214.75 556.086H1214.89L1215.02 555.95H1215.3V555.814L1215.43 555.678V555.541V555.405L1215.57 555.269L1215.7 555.133L1216.11 554.86L1216.25 554.588L1216.52 554.452L1216.66 554.316L1216.93 554.179L1217.06 553.907L1217.34 553.771L1217.61 553.635L1217.88 553.498L1218.02 553.362L1218.15 553.09H1218.42L1218.7 552.817L1218.83 552.681L1218.97 552.545L1218.83 552.273L1218.97 552.137L1219.1 551.864H1219.38L1219.65 551.728L1219.78 551.319L1220.06 550.638L1220.33 550.094H1220.46H1220.74L1220.87 549.957L1221.14 549.821L1221.28 549.549L1221.55 549.685H1221.69L1221.96 548.459L1222.64 547.506L1223.18 547.233H1222.91H1222.64V546.961V546.825L1222.91 546.416L1223.05 546.008L1223.59 545.735L1224 545.463H1224.14L1224.27 545.327L1224.14 545.19L1223.86 544.918V544.782L1224.27 544.646L1224.54 544.373L1224.95 544.101L1225.5 543.692L1226.18 543.148L1226.58 542.603L1226.99 542.33L1227.26 542.058L1227.67 541.786L1227.81 541.649L1227.94 541.377V541.105L1228.9 540.968V541.377V541.786L1229.03 541.922L1229.3 542.058L1229.44 542.194H1229.58L1229.71 542.058L1229.98 541.786H1230.26H1230.94L1231.21 541.922V541.649L1231.07 540.424L1231.21 538.653L1231.48 536.883V535.793V535.248V534.703L1230.39 533.886L1226.72 532.66H1225.9L1225.36 532.252L1223.86 530.073L1222.91 529.392L1222.23 530.073L1221.42 531.026L1220.19 531.162L1215.84 530.209L1212.44 529.119L1210.4 529.256L1208.9 529.528L1207.27 529.256L1206.59 528.983L1206.05 528.711L1203.06 524.625L1202.51 523.535L1201.83 522.854L1201.02 522.446L1197.34 521.084H1196.12H1195.3L1195.03 521.356H1194.22L1193.26 520.948L1191.36 519.994H1190.54L1190.14 520.267L1190 521.901L1189.73 521.765L1189.05 520.675L1187.42 517.679L1185.24 514.41L1179.39 516.453L1172.86 519.858L1171.5 521.084L1169.19 524.625L1164.57 528.983L1162.94 529.392L1161.85 529.119L1158.58 527.213L1157.09 526.123L1156.27 525.714L1155.05 525.442L1154.23 525.306L1153.69 524.897L1151.65 522.854L1151.1 522.582L1148.25 522.173L1147.98 521.765L1152.46 515.5L1144.3 516.044L1141.99 515.636L1141.58 515.227L1141.04 514.819L1139.82 514.41H1138.46L1135.06 517.406L1134.1 517.543L1132.06 517.27L1131.11 517.406L1129.89 517.951L1129.07 518.905L1128.39 519.858L1127.58 520.675L1125.81 521.901L1124.58 522.582L1124.45 522.991L1124.31 523.535L1124.04 523.808L1122.82 524.08L1122.27 524.489L1121.18 525.17L1120.1 526.259L1115.74 529.8L1113.16 533.069L1112.34 533.75L1111.26 534.295L1110.17 534.567L1109.08 535.112L1108.13 536.065L1106.36 539.062L1105.68 540.015L1105 540.287L1100.1 541.377L1097.93 542.875L1096.7 544.646L1096.84 546.689L1096.98 547.097L1097.11 547.37L1098.06 548.732L1098.2 548.868L1098.74 549.549L1099.02 549.957L1098.06 553.362L1101.6 554.86L1103.1 555.405L1104.73 555.269L1106.09 554.724L1107.45 554.588L1109.08 555.269L1110.98 558.402L1111.94 562.896L1113.16 566.846L1116.15 568.889L1119.14 569.161L1122.27 568.889L1132.47 565.756L1138.86 565.075L1140.36 565.348L1141.72 563.849L1141.58 563.441L1141.31 563.168L1140.9 562.76L1140.77 562.624L1140.63 561.943L1140.5 561.534V561.125V560.853H1140.63L1140.9 560.717L1141.18 560.853H1141.72H1142.13H1142.67L1142.94 560.717L1143.35 560.581L1143.49 560.444L1143.9 560.308L1144.17 560.172H1144.58L1145.26 560.581L1145.66 560.853H1145.94L1146.07 560.717L1146.21 560.581L1146.48 560.444H1146.62L1146.89 560.308H1147.16L1147.43 560.172H1147.57L1148.11 560.036L1148.38 559.9L1148.66 559.764L1149.06 559.355L1149.34 558.946L1149.74 558.674L1150.29 558.129L1150.7 557.857L1150.97 557.584L1151.24 557.176L1151.51 556.903L1151.92 556.495L1152.33 556.222V556.086L1152.6 555.95H1152.74H1153.01L1153.42 556.086H1153.55H1153.96L1154.23 556.222H1154.64L1154.91 556.086H1155.05L1155.32 555.95L1155.46 555.814L1155.86 555.678L1156.41 555.269H1156.95L1157.5 554.997H1157.9H1158.18L1158.58 555.133H1159.13L1159.67 555.269L1159.94 555.405H1160.49L1160.76 555.541L1161.3 555.814H1161.44L1161.58 555.95V556.086V556.222L1161.44 556.359V556.631H1161.17L1161.03 556.767L1160.9 556.903V557.04L1161.17 556.903H1161.58H1161.71V556.767V556.631L1161.85 556.495L1161.98 556.359H1162.26L1162.39 556.222L1162.8 555.95L1162.94 555.814L1163.21 555.678L1163.34 555.541L1163.62 555.405L1163.75 555.541L1164.16 555.678L1164.43 555.95L1164.57 556.086V556.222V556.359V556.495L1164.7 556.631V556.767V557.04L1164.57 557.176V557.312L1164.7 557.584L1164.84 557.857L1165.11 558.129L1165.52 558.538L1165.79 558.674L1166.06 558.81L1166.2 558.674L1166.47 558.538L1166.61 558.265V557.993L1166.74 557.721L1166.88 557.584L1167.15 557.721H1167.42L1167.56 557.857V557.993L1167.7 558.129L1167.97 558.265L1168.38 558.129V557.993L1168.51 557.721H1168.65H1168.78H1169.06L1169.33 557.857H1169.46H1170.01H1170.42L1170.28 558.129L1170.14 558.402L1169.6 558.674L1169.33 558.81H1169.74H1169.87L1170.28 558.674H1170.42H1170.82H1170.96H1171.1L1171.37 558.538H1171.5L1171.78 558.674L1172.05 559.083L1172.32 559.355L1172.46 559.491L1172.86 559.9L1173.27 560.172L1173.68 560.444L1174.22 560.853L1174.9 561.125L1175.31 561.262L1175.86 561.398L1176.26 561.534H1176.4H1176.94H1177.35L1177.62 561.67L1177.9 561.806H1178.03H1178.3H1178.71H1178.98H1179.26L1179.39 561.534L1179.53 561.67L1179.8 561.806L1179.94 562.079L1180.07 562.215L1180.21 562.351V562.487V562.896L1180.07 563.305L1180.21 563.713V563.986L1180.34 564.258L1180.48 564.53V564.667L1180.34 564.803L1180.48 564.939L1180.62 565.211V565.348L1180.48 565.62L1180.34 565.756L1180.07 565.892L1180.21 566.029L1180.48 566.301L1180.62 566.437L1181.16 566.573H1181.43H1181.7H1181.84L1181.98 566.71L1182.52 566.846L1183.34 567.254L1183.88 567.391H1184.02H1184.29H1184.42V567.254H1184.7H1184.97L1185.24 567.391V567.254V567.118H1185.38L1185.51 566.982L1185.65 567.118H1185.78H1186.06L1186.19 567.254L1186.33 567.527V567.663L1186.74 567.799L1186.87 566.301L1187.28 564.53L1188.37 563.577V563.441L1188.23 563.305V563.032L1188.1 562.76H1188.23H1188.5H1188.91H1189.32L1189.46 562.624L1189.86 562.487L1190 562.351L1190.27 562.215H1190.41H1190.68L1190.95 562.079H1191.5L1191.77 562.215H1192.04H1192.18L1192.45 562.079V562.215V562.76V563.168V563.305V563.441L1192.58 563.577L1192.86 563.849L1193.26 563.986L1193.54 564.122L1193.67 564.667L1193.81 565.484V565.756L1193.54 566.165V566.301V566.573V566.71L1193.67 566.982L1193.81 567.391L1193.94 567.663L1194.08 568.071L1194.35 568.344V568.48V568.616V568.752L1194.08 568.616L1193.81 568.344H1193.54H1193.4V568.48V568.752L1193.54 569.025V569.161V569.297H1193.4L1193.26 569.433L1193.13 569.297H1192.86H1192.72L1192.45 569.161H1191.9ZM1191.9 569.161H1191.63L1191.5 569.025V568.48M1191.9 569.161V568.889L1191.77 568.752L1191.5 568.48M1191.5 568.48L1191.36 568.344M1199.93 590.952L1198.7 592.178L1198.02 592.723H1197.75V592.995V593.132L1197.62 593.268H1197.48H1197.34L1197.21 593.404H1197.07L1197.21 592.587V592.178L1196.94 592.042L1196.53 591.906L1196.12 591.633H1195.98L1195.44 591.77L1195.3 591.633L1195.17 591.497L1195.58 591.361L1197.21 589.999H1197.62L1198.02 589.863L1198.16 589.727L1198.43 589.59L1198.84 589.454L1198.98 589.182L1199.11 589.046L1199.93 588.773L1200.34 589.727L1199.93 590.952ZM1143.76 572.975L1143.9 572.838L1145.53 573.928L1146.75 576.243L1147.84 578.831L1149.06 580.329L1150.83 581.555V581.963L1150.7 582.236L1150.97 582.781L1151.1 583.189L1151.51 583.598L1151.65 584.006V584.143L1151.78 584.687V585.096V585.368L1151.65 585.777L1151.78 585.913V586.049L1151.92 586.186V586.322L1152.06 586.458L1152.33 586.594L1152.74 586.458L1153.01 586.322L1153.28 586.049L1153.42 585.505L1153.69 585.368H1153.96H1154.37H1154.64L1154.91 585.232H1155.18H1155.59H1156L1156.27 585.096L1156.54 584.96L1156.68 584.687L1156.82 584.551H1157.22L1157.63 584.415L1157.9 584.143L1158.31 584.006V584.143L1158.18 584.551L1157.77 585.368L1157.63 585.913L1157.5 586.186L1157.36 586.322L1156.95 586.594L1156.68 586.73V586.867L1156.54 587.003L1156.41 587.139L1156.14 587.275L1156 587.411L1155.73 587.548H1155.59H1155.32H1154.78H1154.64H1154.1H1153.96L1153.82 587.684V587.82L1154.23 588.092L1154.5 588.229L1154.91 588.365L1155.18 588.501L1155.46 588.773V589.046L1155.32 589.59L1155.18 590.271V590.408L1154.91 590.544L1154.64 590.816H1154.37L1154.23 590.952L1153.82 591.089L1153.55 591.225L1153.28 591.361L1153.14 591.633L1153.28 591.77L1153.55 591.906L1153.96 591.77L1154.78 591.906H1155.18H1155.59H1156.41L1157.22 592.042L1158.18 592.995L1158.31 593.268L1158.58 593.54L1159.26 594.221V594.766H1159.13H1158.99V594.902V595.038H1158.86H1158.72H1158.58L1158.72 595.175L1158.99 595.447L1159.13 595.719V595.856L1158.86 595.992H1158.58H1158.18H1157.9H1157.77L1157.5 596.264V596.4L1157.63 596.537L1157.77 596.673V596.809L1157.5 597.217L1157.36 597.354L1157.09 597.626L1156.68 597.762H1156.41H1156H1155.86L1155.73 598.035L1155.32 598.443L1155.18 598.307L1155.05 598.171H1154.78L1154.5 598.307H1154.37L1154.1 598.171H1153.82H1153.69L1153.14 598.307L1152.87 598.443L1152.74 598.307V598.171L1152.6 597.762V597.354L1152.87 597.081L1153.14 596.537L1152.87 596.128L1152.46 595.583L1152.06 595.038L1151.78 595.175H1151.51L1151.1 595.719V595.856V596.264V596.4L1150.83 596.537L1150.7 596.4V596.128L1150.56 595.992L1150.42 596.4V596.809V596.945L1150.29 597.081V597.217V597.354V597.626L1150.42 597.762L1150.56 597.898V598.035L1150.42 598.171V598.443H1150.29L1150.15 598.307L1150.02 598.035V597.762L1149.88 597.626V597.49L1149.74 597.217H1149.34H1149.2L1148.66 597.354H1148.38H1148.11L1147.43 597.217L1147.16 597.354H1147.02L1147.16 596.945L1147.57 596.537V596.128L1147.7 595.856L1147.84 595.719L1148.11 595.447L1148.52 595.311L1148.79 595.175L1148.93 595.038L1148.79 594.766L1148.93 594.357V593.813L1149.2 593.268L1149.61 592.723L1149.74 592.451L1150.02 592.178L1150.15 592.042H1150.42H1150.7L1151.1 591.906L1151.65 591.633H1151.92L1152.06 591.361V591.089L1151.92 590.816L1151.65 590.544L1151.24 590.408H1151.1L1150.83 590.271L1150.7 590.135L1150.56 589.999V589.863V589.59L1150.42 589.318L1150.15 589.046V588.91L1149.88 588.637V588.365L1150.15 588.092L1150.42 587.956L1150.56 587.684H1150.83L1150.97 587.82L1150.83 588.092L1151.1 588.229L1151.38 588.365L1151.51 588.229L1151.65 588.092L1151.78 587.684L1151.65 587.411V586.73L1151.51 586.322L1151.38 586.049L1150.97 585.777H1150.42L1150.15 585.641H1149.74H1149.47H1149.2H1148.66H1148.25H1147.98H1147.43H1147.02H1146.62L1146.34 585.505L1145.8 584.824L1145.39 584.551L1145.12 584.143L1144.71 583.734L1144.3 583.462L1144.17 583.053V582.781V582.372V582.1L1144.03 581.555V581.283V581.01L1143.9 580.738V580.602L1143.76 580.329L1143.9 579.921V579.24V579.103L1144.03 578.695L1144.17 578.15L1144.3 577.605V577.197L1144.58 576.652V576.243V575.971L1144.44 575.562L1144.3 575.018L1144.17 574.473L1143.9 573.383L1143.76 572.975Z" stroke="white" stroke-width="0.5" stroke-linecap="round" stroke-linejoin="round"/>
<path d="M1185.24 514.411L1179.4 516.454L1172.87 519.859L1171.51 521.085L1169.2 524.626L1164.57 528.984L1162.94 529.393L1161.85 529.12L1158.59 527.214L1157.09 526.124L1156.28 525.715L1155.05 525.443L1154.24 525.307L1153.69 524.898L1151.65 522.855L1151.11 522.583L1148.25 522.174L1147.98 521.766L1152.47 515.501L1144.31 516.045L1142 515.637L1141.59 515.228L1141.04 514.82L1139.82 514.411H1138.46L1135.06 517.407L1134.11 517.544L1132.07 517.271L1131.12 517.407L1129.89 517.952L1129.08 518.906L1128.4 519.859L1127.58 520.676L1125.81 521.902L1125.95 521.085L1126.49 517.952L1123.77 516.318L1117.24 514.684L1116.02 513.322L1115.88 511.687L1116.56 510.461L1118.06 510.325L1120.51 512.504L1122 513.049L1122.14 511.279L1121.46 510.325L1108.4 495.48L1106.09 493.437L1105.82 493.165L1105.68 492.892L1104.32 491.394V491.258L1104.73 489.079L1104.6 481.996L1104.32 479.953L1102.83 477.366L1101.47 475.459L1100.92 474.642L1100.79 473.961V473.416L1100.92 472.871L1102.28 469.875L1102.56 469.33L1102.83 467.968L1102.56 467.151L1100.52 466.879L1100.38 466.606L1100.11 466.061V464.563L1099.84 463.474L1099.97 462.793L1100.24 462.248L1103.64 457.481L1104.32 456.255L1105.14 453.94H1105.68H1105.82V454.076V454.212L1106.09 454.349L1106.5 454.621L1106.91 454.757L1107.04 454.485L1107.32 454.212H1107.45L1107.72 454.076L1107.86 454.212L1108.13 454.485H1108.27H1108.4L1108.68 454.076L1108.95 453.94H1109.08L1109.36 453.804L1109.63 453.668L1109.9 453.531H1110.17L1110.44 453.395L1110.72 453.531H1110.85L1110.99 453.395V453.259L1111.12 452.85V452.578L1111.26 452.306L1111.4 452.033L1111.67 451.897L1111.94 451.761H1112.08H1112.21V451.625L1112.08 451.352V451.08L1112.21 450.671L1113.03 450.263H1113.3H1113.44L1113.71 450.126L1113.84 449.99L1113.98 449.854V449.718L1114.66 449.173L1114.93 449.309H1115.07L1115.34 449.173L1115.75 448.901L1115.88 448.765L1116.16 448.628H1116.43L1116.7 448.492L1116.84 448.628L1117.24 448.901H1117.65H1117.92H1118.06L1118.33 448.492L1118.47 448.22L1118.88 447.811L1119.15 447.675L1119.42 447.539L1120.78 448.492L1122 450.126L1126.08 457.073L1126.76 459.115L1126.9 461.022L1125.81 467.015L1125.95 468.649L1126.76 470.011L1127.04 469.875V470.147V470.42V470.828L1127.17 471.101V471.509V472.054L1127.31 472.463L1127.44 472.871L1127.58 473.144V473.416V473.688L1127.85 473.961L1127.99 474.097V473.688V473.416L1128.26 473.007L1128.53 472.599L1128.67 472.326V472.19V471.645V471.373L1128.8 470.965L1128.94 470.692L1129.21 470.556L1129.62 470.42L1129.76 470.011L1130.03 469.875L1130.57 469.739L1130.84 469.194L1131.12 469.058L1132.34 469.603L1133.7 470.42L1134.79 471.645L1135.88 473.144L1137.1 474.369L1138.6 474.506V474.642V474.778V474.914V475.05L1138.73 475.187L1139 475.323V475.459V475.731L1139.14 476.004L1139.41 476.14V476.276L1139.68 476.549L1139.96 476.685L1140.23 476.821L1140.5 476.957L1140.77 477.093L1140.91 477.23L1141.04 477.093V476.821H1141.18H1141.45H1141.59L1141.72 476.685L1142 476.549L1142.13 476.412L1142.27 476.276V476.14L1142.4 476.004L1142.68 475.731H1142.81H1143.08H1143.22L1143.36 475.595L1143.63 475.459L1143.9 475.323L1144.04 475.05H1144.31H1144.44L1144.72 474.914H1144.85L1145.12 474.778H1145.4L1146.76 475.459L1148.25 476.549L1149.48 477.366H1150.16V477.502L1150.43 477.638L1150.56 477.774H1150.84H1150.97V477.911L1151.11 478.319L1151.65 479L1151.79 478.864L1151.92 478.728H1152.06L1152.2 478.864L1152.33 479V479.136L1152.47 479L1152.88 478.592L1153.15 478.455L1153.42 478.592L1155.19 481.724L1156.28 482.541L1157.09 480.634L1156.96 478.592L1156.55 476.957L1156.68 475.595L1158.18 474.778H1158.86L1159.13 475.05L1159.54 475.323L1159.81 475.459H1160.08L1160.22 475.323L1160.76 476.004L1161.58 479.681L1162.4 481.043L1163.21 481.996H1164.16L1164.84 480.634L1165.12 480.498H1165.25L1165.52 480.362L1165.8 480.09V479.953L1165.93 479.409V479L1166.07 478.728L1166.48 478.183H1166.75L1167.43 478.319L1171.78 481.996L1172.05 481.724L1172.19 481.996L1172.46 481.86L1172.87 481.452L1173.55 480.907L1174.09 480.498L1174.5 479.953L1174.64 479.681L1175.04 479L1175.32 478.455L1175.72 478.047L1176 477.638H1175.72L1176 477.366L1175.86 477.23L1175.72 476.957L1175.32 476.549L1174.91 476.004L1174.64 475.731L1174.5 475.459V475.187V475.05L1174.64 474.778V474.506L1174.77 474.233L1175.18 473.961L1175.45 473.688L1176 473.416L1176.27 473.144L1176.4 472.871V472.599V472.326L1176.27 472.054V471.782V471.645L1176.13 471.509L1176 471.373L1175.72 471.237L1175.59 471.101V470.965V470.692V470.556L1175.45 470.42L1174.91 470.011L1174.77 469.739V469.466V469.33L1174.64 469.058V468.785V468.649L1174.77 468.377L1174.91 468.241L1175.04 468.104V467.832V467.56V467.423V467.151L1175.18 467.015H1175.32V466.879L1175.18 466.742L1174.91 466.606V466.47L1174.5 466.198L1174.36 465.925V465.517L1174.5 465.38L1174.64 464.972L1174.77 464.7L1175.04 464.427L1175.32 464.291L1175.45 464.155L1175.72 464.019L1176 463.882L1176.13 463.61L1176.27 463.474L1176.4 463.338H1176.68L1176.81 463.201L1176.95 463.065L1177.22 462.929H1177.49H1177.63L1177.76 463.338L1178.04 463.474L1178.17 463.746V464.019L1178.31 464.155L1178.58 464.291H1178.85L1179.26 464.427H1179.4L1179.53 464.291L1179.94 464.019L1180.08 463.882L1181.16 464.427L1181.44 464.291V464.427L1181.57 464.563H1181.71H1181.98L1182.39 464.427H1182.52L1182.8 464.563L1183.07 464.836H1183.2L1183.34 464.972L1183.75 464.836H1184.02L1184.29 464.563L1184.7 464.155L1185.11 463.474L1185.52 463.065L1185.79 462.793L1186.2 462.52L1186.47 462.112L1186.6 461.976V461.839L1186.88 461.431L1187.15 461.022L1187.28 460.886V460.75V460.477V459.933L1187.42 459.388L1187.69 459.252L1187.83 459.388L1187.96 459.796L1188.1 459.933L1188.24 460.205H1188.37H1188.64L1188.78 460.069L1189.05 459.796L1189.19 459.115L1189.46 458.707L1189.73 458.298L1190 457.89L1190.28 457.209L1190.68 456.392L1190.82 455.983L1190.96 455.847L1190.82 455.711V455.574V455.438V455.302L1190.28 455.03L1190 454.893V454.757V454.621L1190.28 454.485L1190.68 454.212L1191.09 453.94L1191.5 453.531L1191.77 453.123L1192.04 452.714V452.442V452.306V452.033L1192.45 452.306L1192.72 451.761L1192.59 452.169V452.306L1192.86 452.714L1193.13 452.987L1193.68 453.395L1194.08 453.668L1194.36 453.94L1194.63 454.076H1194.9L1195.17 453.94L1195.44 453.668L1195.58 453.531L1195.44 453.259L1195.17 452.987L1194.63 452.442L1194.36 451.897L1194.22 451.625V451.216V450.671V450.399V450.263H1194.36L1194.76 451.761L1195.44 452.033L1195.99 451.488V450.535H1196.12L1196.26 450.399V450.263V449.99L1196.4 449.854L1196.53 449.718L1196.94 449.99L1197.21 450.263L1197.35 450.671L1197.48 451.216V452.033V452.85L1197.62 452.987L1197.76 453.123H1198.03L1198.16 452.987L1198.3 452.714V452.578L1198.16 452.306L1197.89 451.897L1198.16 451.625L1198.57 451.216L1204.42 460.069L1205.51 462.929L1206.05 466.061L1205.78 470.147L1205.92 471.782V471.918L1205.51 472.599L1205.37 472.871V473.688V474.097V474.233L1205.51 474.369H1205.78L1206.05 474.506H1206.19V474.914V475.05V475.187H1206.32H1206.6V475.323L1206.73 475.459L1206.87 475.731L1207 476.14L1207.14 476.276L1207.41 476.685L1207.55 476.957L1207.96 477.093L1208.36 477.366L1208.77 477.502L1209.18 477.638L1209.45 477.774L1209.72 477.911L1210.13 478.047L1210.54 478.183L1210.81 478.319L1211.08 478.455H1211.36L1211.49 478.592L1211.76 478.455L1212.04 478.047L1212.31 477.774L1212.72 477.638H1213.26H1213.53H1214.08L1214.76 477.774H1215.03H1215.44H1215.84L1216.12 477.911L1216.25 478.047V478.455V478.728L1216.39 479L1216.66 479.136L1217.2 479.409L1217.61 479.545L1218.16 479.681L1218.7 479.817L1218.97 479.953L1219.24 480.226L1219.52 480.362L1219.65 480.498L1219.92 480.771L1220.33 481.179L1220.47 481.315L1220.74 481.043L1221.15 480.771L1221.42 480.498L1222.1 479.953L1222.37 479.409V479.136L1222.64 478.728L1222.92 478.319L1223.32 478.047L1223.6 477.911L1223.73 478.047H1224L1224.28 477.911L1224.55 477.638L1224.96 477.366L1225.09 477.23H1225.36L1225.64 477.366L1226.04 477.502L1226.45 477.366H1226.72L1227.13 477.093L1227.68 477.502H1227.81L1228.08 479.272L1228.22 481.996L1228.76 487.036V488.942L1228.36 490.577L1227.81 491.666L1227.68 491.53L1227 491.258H1226.72H1226.45L1226.32 491.394V491.53L1226.45 491.666L1226.86 491.939L1227.13 492.211L1227.27 492.484L1227.4 492.756L1227.54 492.892L1227.81 493.028L1228.22 493.437L1228.36 493.573H1228.63L1228.76 493.437L1228.9 493.165L1229.31 493.028L1229.17 493.846L1227.4 501.745L1226.86 502.29L1226.59 502.426L1226.04 502.698L1224.96 502.834L1220.74 502.971L1219.52 503.243L1218.29 503.107L1208.77 500.792L1206.87 500.928H1205.1H1203.47L1202.65 501.064L1199.66 502.562L1197.21 501.336L1189.73 503.379L1188.92 504.741L1187.96 505.422L1185.65 507.601L1185.24 508.146L1185.38 508.827L1186.2 509.917L1187.42 512.368L1185.24 514.411ZM1112.08 491.122L1110.85 491.394L1111.67 493.301L1111.8 493.437L1113.03 494.663L1115.07 497.523L1116.29 498.749L1117.79 499.021L1117.65 497.387L1116.7 495.071L1115.75 493.437L1113.98 491.939L1112.08 491.122ZM1193 451.352L1193.27 450.399L1193.54 449.854L1193.68 449.99V450.126V450.399V450.807L1193.4 450.944L1193.13 451.08L1193 451.352ZM1192.86 442.363L1193 443.453V445.36L1191.77 450.807V451.625V451.488L1191.64 451.216L1191.77 450.944V450.535L1191.64 450.126L1191.5 449.99L1191.36 449.718V449.582V449.309V448.901L1191.09 448.356L1190.96 447.947L1190.68 447.403L1190.55 447.13L1190.28 446.858H1190H1189.73H1189.32L1189.05 446.994L1188.64 447.266L1188.24 447.675H1187.96H1187.83L1187.56 447.403H1187.28L1187.15 447.266L1187.01 446.994H1187.15L1187.28 446.858L1187.56 446.449L1187.69 446.313L1188.1 446.041H1188.37H1189.19H1189.6H1189.87L1190 445.904L1190.28 445.768H1190.55L1190.68 445.632L1190.96 445.496L1191.5 445.223L1191.64 444.951L1192.04 444.406V443.861V443.453L1191.91 443.18L1192.04 443.044L1192.18 442.772L1192.59 442.636L1192.72 442.363H1192.86Z" fill="#E6E6E6" stroke="white" stroke-width="0.5" stroke-linecap="round" stroke-linejoin="round"/>
<path d="M1231.21 541.922V541.65L1231.07 540.424L1231.21 538.654L1231.48 536.883V535.793V535.249V534.704L1230.39 533.887L1226.72 532.661H1225.91L1225.36 532.252L1223.87 530.073L1222.91 529.392L1222.23 530.073L1221.42 531.027L1220.19 531.163L1215.84 530.209L1212.44 529.12L1210.4 529.256L1208.91 529.528L1207.27 529.256L1206.59 528.984L1206.05 528.711L1203.06 524.625L1202.51 523.536L1201.83 522.855L1201.02 522.446L1197.35 521.084H1196.12H1195.31L1195.03 521.357H1194.22L1193.27 520.948L1191.36 519.995H1190.55L1190.14 520.267L1190 521.901L1189.73 521.765L1189.05 520.676L1187.42 517.679L1185.24 514.411L1187.42 512.368L1186.19 509.916L1185.38 508.827L1185.24 508.146L1185.65 507.601L1187.96 505.422L1188.91 504.741L1189.73 503.379L1197.21 501.336L1199.66 502.562L1202.65 501.063L1203.47 500.927H1205.1H1206.87L1208.77 500.791L1218.29 503.106L1219.51 503.243L1220.74 502.97L1224.95 502.834L1226.04 502.698L1226.59 502.425L1226.86 502.289L1227.4 501.744L1229.17 493.845L1229.31 493.028H1229.58L1229.85 492.892H1230.12H1230.53L1230.8 492.755H1231.07L1231.35 492.619L1231.75 492.483L1232.03 492.347L1232.3 492.074H1232.57H1232.84L1233.11 492.211H1233.39L1233.66 492.074L1233.93 491.938L1234.2 491.802L1234.75 491.393L1235.15 490.849L1235.29 490.712L1235.56 490.44L1235.83 490.168L1236.24 490.031L1236.51 489.895H1236.79H1236.92H1237.06H1237.33L1237.6 489.759H1237.87L1238.15 489.623H1238.28L1238.55 489.35L1238.69 489.078L1238.83 488.669V488.397L1239.23 487.989L1239.51 487.716L1239.91 487.444L1240.32 487.171V487.035H1240.59L1240.87 487.171L1241.14 487.852L1241.41 488.125L1241.55 488.261L1242.5 489.759L1243.99 490.712L1246.03 491.393L1249.57 491.666H1249.71L1249.84 491.802L1250.25 491.938L1250.39 492.347V492.892L1250.25 493.436V495.616L1251.61 496.296L1253.38 496.433L1254.74 496.977L1257.87 501.881L1258.14 502.017L1258 502.289L1257.87 502.425L1257.73 502.698L1257.87 502.97L1257.73 503.243L1257.46 503.515L1257.19 503.787L1257.05 503.923L1256.91 504.196V504.332L1257.05 504.604L1257.46 505.013L1257.73 505.149H1258.14H1258.41L1258.82 505.422L1259.09 505.558L1259.23 505.694L1259.5 505.83H1259.63H1259.77L1260.04 505.966L1260.45 506.103H1260.86L1261.13 506.239H1261.4L1261.67 506.375L1261.95 506.511L1262.35 506.647H1262.49L1262.76 506.784H1263.03L1263.44 506.92L1263.58 507.056L1263.99 507.328L1264.39 507.465L1264.53 507.601H1264.67L1265.21 507.737H1265.48L1265.62 507.873H1265.89L1266.16 508.009H1266.43L1266.84 508.146L1267.11 508.282H1267.52H1267.79H1267.93L1268.07 508.146H1268.47H1268.88L1269.15 508.009H1269.43L1269.7 507.873H1269.97L1270.24 507.737H1270.51L1270.92 507.465L1271.33 507.328H1271.47L1271.74 507.192L1272.01 507.056L1272.28 506.784L1272.69 506.92H1272.96H1273.1L1273.37 506.647H1273.64H1273.91H1274.05L1274.32 506.511H1274.59L1275 506.375L1275.41 506.239L1275.68 506.103L1275.82 505.966L1276.23 505.83H1276.5L1276.77 505.694H1277.04H1277.31L1277.72 505.83L1278.13 506.103L1278.4 508.554L1278.13 510.189L1279.08 510.052L1280.17 509.235L1280.31 509.508L1280.58 509.644V509.916V510.052L1280.31 510.461L1280.17 510.733L1280.31 510.87H1280.44L1280.85 511.006H1280.99L1281.12 511.142L1281.26 511.278L1281.53 511.142H1281.8L1282.07 511.278L1282.35 511.414L1282.75 511.55L1283.16 511.414H1283.71L1284.25 511.55L1284.52 511.278V510.733L1284.66 510.189L1284.79 509.916H1285.07H1285.2L1285.61 510.052L1285.88 509.644L1286.02 509.371L1286.15 509.235V508.963L1286.43 508.827H1286.7H1287.11L1287.24 508.69L1287.38 508.146L1287.51 507.873H1287.65L1287.92 508.146L1288.06 507.873L1288.47 507.601H1288.74H1288.87H1289.15H1289.28L1289.42 508.009L1289.55 508.146H1289.83L1289.96 507.873L1290.23 507.601L1291.46 508.418L1295.67 508.146L1297.31 508.554L1297.85 508.69L1298.12 510.189V510.325L1297.85 510.597L1297.58 511.142V511.414L1296.22 513.457L1295.95 513.593L1295.54 513.73L1295.13 514.002L1294.72 514.274L1294.04 514.683H1293.91L1293.5 514.819H1292.95H1292.55H1292.27L1291.87 514.683L1291.73 514.955L1291.59 515.228L1291.32 515.364H1291.05L1290.78 515.228H1290.51H1290.23H1289.83L1289.28 515.092H1289.01L1288.74 515.228H1288.47H1288.19L1287.79 515.364L1287.51 515.5L1286.97 515.364L1286.43 515.636L1285.75 516.045L1285.07 516.454L1284.39 517.271L1283.84 517.816L1283.71 518.224L1282.75 518.36L1282.07 518.769L1281.67 519.041H1281.53L1281.12 519.177H1280.71L1280.31 519.45H1280.17L1279.49 519.722L1279.08 519.995L1278.54 520.267H1278.13L1277.45 520.131L1277.31 520.948V521.357H1277.72L1277.45 521.901L1277.18 522.446V522.582L1274.46 523.263L1273.64 523.672H1273.37H1273.23L1273.1 523.808L1272.01 524.353L1271.47 525.034V524.489V524.353V524.081L1271.33 523.536H1271.06H1270.65L1270.51 523.672L1270.24 523.808L1270.11 524.217V524.489V524.762L1270.65 525.306L1270.92 525.579L1271.47 525.17L1270.24 527.077L1269.97 529.392L1269.7 529.801L1269.56 530.209V530.346V530.482V530.618V531.027V531.435V531.708V531.844L1269.43 533.342L1269.29 533.069L1269.02 532.661L1268.88 532.525L1268.61 532.661L1268.34 532.525L1267.79 532.389L1267.52 532.252L1267.39 532.389L1267.25 532.661L1266.98 532.933L1266.43 533.206L1266.16 533.342L1266.03 533.206L1266.16 532.797V532.389L1266.03 532.116L1265.75 531.571L1265.48 531.299H1265.35L1265.21 531.571H1265.07L1264.8 531.435L1264.39 531.708L1263.71 532.252L1263.31 532.661V532.797L1263.58 532.933L1263.71 533.069H1263.31L1262.76 534.704L1262.63 536.066L1262.35 537.428L1261.67 538.654L1260.86 539.335L1260.45 539.198L1260.04 539.062L1259.5 538.926L1259.36 538.79L1259.23 538.654V538.517V538.245L1259.09 538.109H1258.82L1258.68 537.973L1258.27 537.836L1258 537.7L1257.87 537.564V537.428L1257.73 537.292L1257.59 537.155H1257.46L1257.32 537.019L1257.05 536.747L1256.91 536.611H1256.78L1256.51 536.747V536.883L1256.37 537.019L1255.96 536.883L1255.55 536.747L1255.01 536.611L1254.74 536.474L1254.33 536.611L1254.06 536.474L1253.79 536.338H1253.51L1253.38 536.066H1253.11H1252.7L1252.56 535.93L1252.29 535.793V535.657L1252.43 535.385L1252.29 535.249V534.976L1252.15 534.84L1252.02 534.568L1251.75 534.159L1251.47 533.75H1251.34H1251.2H1251.07L1250.93 534.023L1250.79 534.295L1250.66 534.568L1250.52 534.704V534.84V534.976L1250.25 535.249L1249.84 535.657L1249.57 535.385L1249.03 534.84L1248.62 534.295L1248.21 533.887L1248.07 533.614L1247.94 533.206L1247.8 533.069L1247.67 532.797L1247.53 532.389L1247.26 531.844L1246.99 531.299L1246.71 530.89L1246.31 530.618L1245.9 530.346L1245.63 530.073L1245.49 529.937L1245.35 529.665L1245.22 529.392L1245.08 529.256H1244.95H1244.67L1244.27 529.392H1243.86L1243.72 529.528L1243.45 529.801H1243.31H1243.18V529.937L1242.91 529.801L1241.27 530.618H1241.14L1240.87 530.482H1240.59L1240.19 530.618L1240.46 530.754L1240.73 531.027L1240.59 532.389L1242.09 534.976V536.747L1241.68 538.245V539.335L1242.23 540.152L1245.35 542.467L1245.76 543.284L1246.17 544.374V544.782L1246.03 544.919H1245.9L1245.76 545.055L1245.63 545.191L1245.49 545.6L1245.35 545.872L1245.22 546.144L1245.08 546.281L1244.95 546.553L1244.67 547.506V547.915V548.187L1244.95 548.732L1245.22 549.141L1244.4 550.094H1244.27H1243.86L1243.59 550.23L1243.31 550.094L1243.04 549.958H1242.63L1242.36 549.822L1242.09 549.685H1241.82L1241.68 549.549V549.277L1241.41 548.868L1241 548.46L1240.46 547.915L1240.05 547.37L1239.37 546.962L1238.83 546.553L1238.42 546.144L1238.15 545.872L1238.01 545.6H1237.87H1237.74L1237.6 545.872L1237.47 546.144L1237.33 546.417H1237.06L1236.79 546.281H1236.65L1236.38 546.553H1236.11H1235.83H1235.56L1235.43 546.689L1235.29 546.417L1235.15 546.144L1235.02 545.872L1234.88 545.463L1234.75 545.191L1234.47 544.919H1234.34L1234.2 544.782L1233.93 544.646L1233.66 544.51L1233.39 544.374H1233.25H1233.11V544.101V543.965L1233.25 543.557L1233.39 543.148L1233.66 542.603L1233.52 542.467L1233.39 542.195H1232.98L1232.43 542.058L1231.62 541.922H1231.21Z" fill="#E6E6E6" stroke="white" stroke-width="0.5" stroke-linecap="round" stroke-linejoin="round"/>
<path d="M1004.5 567.258L1002.18 566.168L1000.55 565.896L988.857 567.667L987.361 568.348L984.913 569.71L983.145 569.982L978.929 569.301L977.433 569.437L973.353 570.391L972.537 568.756L972.673 567.939L972.945 567.258L974.033 563.581L974.305 563.036L974.577 562.491L974.985 561.946L975.257 561.402V561.129H974.985L953.361 566.441L936.905 566.168L935.001 565.76L934.729 565.487L934.321 564.67L933.913 563.989L933.641 561.402L933.913 559.903L934.185 558.541L942.617 538.929L942.481 537.703L941.801 537.84L940.577 538.248L939.353 538.384L938.945 537.976L938.809 537.567L939.217 534.026L939.353 531.711L939.489 531.302L939.761 531.03L940.169 530.757L941.121 530.621L945.065 529.94L946.153 528.851L946.289 525.037L951.865 528.034L960.297 532.392L960.433 532.256L960.569 531.983L960.977 531.575L961.113 531.302L961.657 531.575L961.793 531.711L961.929 531.847L962.201 531.302L962.337 531.166L962.473 530.894L962.609 530.757L962.745 530.621L963.017 530.485H963.153V530.349L963.833 530.485L964.377 530.621L964.785 530.485V530.349L964.921 530.213L965.057 529.804V529.668L965.193 529.395L966.417 530.076L967.913 530.757L968.865 530.894L969.817 531.03L970.225 530.757L970.497 530.894L970.905 531.03L971.313 530.757L971.585 530.621H971.721L972.129 530.485L972.537 530.213H972.673L972.945 530.076L973.217 529.668L973.625 529.259L973.897 528.987L973.761 528.578V528.442L973.489 528.17V528.034L973.081 527.897L972.809 527.761L972.537 527.625L971.993 527.489L972.129 527.216V527.08L972.401 526.672L972.537 526.399H972.673V526.263L972.945 525.854V525.718L973.217 525.446L973.353 525.31L973.625 525.037L973.761 524.765L973.897 524.629L974.033 524.22L973.761 523.811L973.625 523.539V523.403L973.353 522.994L973.217 522.586L973.081 522.177H972.945V521.768L972.809 521.632L972.673 521.224L972.537 521.087V520.815V520.543L972.401 520.27V519.726L972.673 519.317L972.401 519.045H972.265L971.857 519.181L971.177 519.045L970.633 518.908H969.953L969.545 518.636L969.409 518.091L969.545 517.819V517.41L969.409 516.729V516.048L969.137 514.414L969.001 512.916L968.865 512.643L968.729 511.418V511.145V511.009L968.593 510.056L968.457 509.238L968.321 508.013V507.604L968.049 506.106L968.321 505.97L968.593 505.833V505.697H968.729L969.137 505.561L969.409 505.289H969.545V505.152L969.817 504.88L969.953 504.335L970.089 503.927V503.654L969.817 503.246V502.837V502.701L969.681 502.292V501.748V501.475L969.817 501.067V500.93L969.953 500.658V500.522L970.225 500.658L970.769 500.794L971.177 501.203L971.313 500.658V500.113L971.449 499.568V499.432H971.585L971.993 499.16L972.401 499.024H972.673H972.945L973.625 498.887L973.761 498.751L974.577 498.07L977.569 500.794L978.113 501.611L978.385 502.565V504.88L978.657 505.561L979.065 505.833L979.609 505.425L979.881 505.289L980.153 505.97L980.425 507.604L981.513 507.195L983.145 507.468L984.777 508.149L985.865 508.966L986.409 509.783L987.225 511.418L987.769 512.099L988.313 512.507L990.217 513.46L991.033 514.141L991.441 514.686L992.121 516.184L992.257 516.593L992.121 517.683V518.091L992.665 518.636H993.209L993.617 518.5L994.161 518.772L995.113 519.589L995.929 520.815L996.065 522.041L995.113 523.267L996.337 523.948L997.289 523.675L998.241 522.994L999.329 522.586L1000.01 522.994L999.873 523.948L998.649 525.991L1001.64 525.31L1003 525.446L1003.82 527.761L1005.18 528.987L1005.58 529.804L1005.31 530.621L1004.09 531.711V532.528L1004.63 532.8L1005.31 532.256L1006.13 531.575L1006.81 531.166L1007.49 531.438L1007.9 532.119V532.8L1006.13 533.618L1005.45 534.843L1004.63 538.384L1005.45 538.248H1006.13L1006.94 538.521L1007.62 539.065L1006.26 539.746L1006.4 540.564L1007.08 541.245L1007.62 541.926L1007.76 542.606L1008.03 543.424V544.377L1007.76 545.194L1006.81 546.556L1006.4 547.237L1005.99 548.191L1005.72 548.872L1004.22 557.452L1005.31 560.176L1005.72 560.857L1005.86 562.355L1004.9 566.032L1004.5 567.258ZM977.297 577.2L994.161 573.932L997.561 576.383L997.969 577.745L998.241 579.107L998.105 580.469L997.561 581.695L995.929 581.967L990.625 581.15L989.129 581.559L986.545 583.874L985.729 584.146L984.097 581.15L982.873 580.197L981.921 581.967L982.057 582.784L983.417 583.874L983.689 584.555L983.553 586.462V587.415L983.961 588.368L990.353 597.221L990.489 599.264L987.497 600.49L985.865 598.038L984.777 593.953L983.281 590.684L981.785 589.594L981.241 590.411L981.513 592.182L982.193 594.225L983.825 597.63V598.992L982.873 600.762L982.601 600.899L981.921 601.035L981.649 601.171L981.105 602.669V602.805V603.214L980.969 604.167L980.561 604.712L979.609 604.303L977.569 601.171L976.481 600.218L974.033 602.397L973.217 602.124L973.353 601.171V599.673L973.761 598.856L974.033 598.175L974.169 597.63L973.897 597.221L973.489 596.949L972.265 596.132L971.993 595.859L971.721 595.451L971.857 595.042L972.401 594.77H972.809L973.217 595.042L973.489 595.314L973.761 595.723H974.033L974.305 595.178L974.577 592.046L974.441 591.229L974.305 590.684L974.169 589.867L973.489 588.096L973.353 587.824V587.687L973.081 587.143L972.809 586.326L972.673 585.781V585.1L972.809 584.419L973.081 583.329L974.169 581.422L977.297 577.2Z" fill="#E6E6E6" stroke="white" stroke-width="0.5" stroke-linecap="round" stroke-linejoin="round"/>
<path d="M973.22 602.122L973.084 601.985H972.132L971.452 604.028L970.772 619.146L970.364 621.325L969.412 623.232L967.644 625.003L964.516 627.046L963.564 628.408L963.836 628.952L964.38 630.178L962.884 630.859L958.532 632.085L954.86 632.357L951.324 632.085L945.476 630.042L934.732 629.633L910.116 623.232H906.716L903.996 624.049L897.332 628.816L891.484 629.77L890.124 631.131L890.668 635.354L890.396 635.626L890.124 635.898L889.716 636.171H889.308L887.54 635.898L886.452 636.035L881.012 631.268L878.02 628.544L876.932 627.318L876.252 625.82L876.388 619.282L876.66 618.601L877.068 617.648L878.02 617.512L880.196 617.376L880.74 617.239L881.42 616.967L881.692 616.558L881.964 616.014V614.924V614.379L881.828 613.426L881.692 612.881L881.556 612.336V611.519V610.021L881.692 609.476L881.828 609.068L882.508 608.523L883.596 607.57L885.772 606.48L887.404 605.799L889.308 605.39H889.852L890.94 605.118L891.212 604.301L889.308 595.584L888.084 593.677L875.572 591.226L873.94 591.09L873.26 591.362L872.58 591.226L872.036 590.954L870.948 590.273H870.404L869.86 590.409H868.772H867.956L862.244 588.774L861.428 587.276L861.02 587.412L860.748 587.549L859.796 587.821L857.212 585.097L857.076 584.552V583.871L857.348 583.19L857.212 581.965L856.94 581.284L856.396 581.011L855.852 580.875H855.444L855.036 581.011L853.676 581.692L853.268 581.828L852.588 581.965L852.044 581.828L851.228 581.692L850.82 581.284L850.684 580.739L850.276 576.517L850.412 575.972L850.548 575.563L850.956 575.427L852.316 574.882L852.588 574.61L852.86 574.338L853.132 573.52L853.268 571.205L851.228 568.89L850.956 568.073L851.092 567.392L851.228 566.847V566.166L851.092 565.757L850.684 565.485L849.188 564.668L848.644 564.259L848.372 563.851L848.236 563.306L847.148 558.403L847.012 556.904L846.876 552.41V551.729L847.012 551.184L847.148 550.639L847.828 549.141L848.236 547.779V546.417L848.1 545.6L847.828 544.647L847.284 543.421L846.876 542.876L846.468 542.604H846.06L844.156 543.012L842.524 543.149L841.436 542.876L840.212 542.604L837.22 541.651L828.108 541.378L827.564 540.97L838.58 519.45L840.62 514.275L838.988 511.415L838.444 509.781L838.308 509.372V507.738L838.444 506.103V505.15V504.469L838.308 503.924L838.036 503.652L837.628 503.243L831.1 501.473L830.148 500.928L829.74 500.655L829.06 499.838L828.652 499.021L828.516 498.612L828.38 498.068L827.156 484.72L828.108 483.631L828.652 482.133L837.492 478.455V478.183L838.716 478.455L841.572 479.273L850.004 478.728L857.076 478.319L867.548 477.638L875.3 477.23L884.412 476.685L890.26 476.276L899.644 475.731L908.892 475.187L909.708 475.459L910.524 475.595L912.02 476.412L913.516 477.23L914.332 477.502L915.148 477.774H915.828L916.508 477.638L917.052 477.23L918.004 477.093L918.412 476.412L918.684 476.14L920.724 474.778L921.676 474.233L921.812 474.097H921.948L922.356 473.961V474.233V474.642V474.914V475.323L922.9 476.276L923.172 476.685L923.58 477.23L924.396 478.047L924.668 478.319L924.804 478.455L925.212 479.136L925.62 479.545V479.681L926.708 480.907L926.844 481.316L926.98 481.588V481.724L927.116 481.86L927.388 482.405V482.541L927.524 483.086L927.796 483.767V484.039L927.932 484.312V484.857L928.068 484.993V485.401L928.204 485.81V485.946L928.34 486.219V486.491V486.763L928.476 487.172V487.444V487.581L928.748 488.125L929.156 488.67H929.292L929.428 488.943L929.564 488.806L929.836 488.67H929.972V488.534L930.788 488.125V487.989H930.924L931.876 487.853L932.556 488.534H932.828L932.964 488.398L933.1 488.262H933.236L933.372 487.989L933.508 487.717L933.78 486.9L934.052 486.627H934.188H934.324L934.596 486.491H934.732L935.14 486.627L935.276 486.9L935.14 487.036L935.276 487.581V487.717L935.548 488.398H935.82V488.534V488.67L935.684 489.079V489.624L935.276 489.487L935.004 489.351L934.868 489.487V489.624L933.372 489.896L932.964 490.304L931.06 491.939L931.196 492.347L932.012 492.075L932.964 492.756V492.892L933.1 493.028L932.828 493.301H932.692L932.42 494.118L933.372 495.752L933.1 496.025V496.297L932.556 496.57L932.964 497.387L932.42 497.659L932.148 497.251V497.387L931.876 497.523L931.74 497.795V497.931H931.604V498.068L933.1 498.34H933.644L934.052 498.885H933.916L933.508 499.974L932.964 500.111H932.828H932.284V500.792L930.924 501.2L930.652 501.473L930.516 501.609H929.972L929.564 502.017L929.428 502.154V502.29L929.156 502.426L929.02 502.562L927.932 503.243V503.379L927.524 503.788L927.66 504.06V504.333L927.524 505.286V506.103L927.252 506.239L927.116 506.103L926.98 506.239H926.844L926.708 506.103L926.572 506.239H926.436V506.376L926.164 506.239V506.103H925.892H925.756H925.62H925.484H925.348H925.212H925.076V505.967V506.648V506.784V506.92V507.057L925.212 507.329V507.465L925.348 507.601H925.484V507.738H925.62V508.01V508.146V508.282H925.484V508.419H925.348V508.555V508.691V508.827L925.484 508.963L926.708 510.053L926.572 510.189V510.462L926.436 510.87L926.572 511.006L926.844 511.279L928.34 511.551L928.748 511.823L930.38 512.368H930.788V512.504L931.876 513.049L935.276 516.318L938.54 519.587L940.852 521.63L943.3 523.536L946.292 525.035L946.156 528.848L945.068 529.938L941.124 530.619L940.172 530.755L939.764 531.027L939.492 531.3L939.356 531.708L939.22 534.024L938.812 537.565L938.948 537.973L939.356 538.382L940.58 538.246L941.804 537.837L942.484 537.701L942.62 538.927L934.188 558.539L933.916 559.901L933.644 561.399L933.916 563.987L934.324 564.668L934.732 565.485L935.004 565.757L936.908 566.166L953.364 566.438L974.988 561.127H975.26V561.399L974.988 561.944L974.58 562.489L974.308 563.033L974.036 563.578L972.948 567.255L972.676 567.936L972.54 568.754L973.356 570.388L970.5 571.205L969.004 572.295L970.772 574.338L974.036 576.381L976.62 577.334L977.3 577.198L974.172 581.42L973.084 583.327L972.812 584.416L972.676 585.097V585.778L972.812 586.323L973.084 587.14L973.356 587.685V587.821L973.492 588.093L974.172 589.864L974.308 590.681L974.444 591.226L974.58 592.043L974.308 595.176L974.036 595.72H973.764L973.492 595.312L973.22 595.039L972.812 594.767H972.404L971.86 595.039L971.724 595.448L971.996 595.857L972.268 596.129L973.492 596.946L973.9 597.219L974.172 597.627L974.036 598.172L973.764 598.853L973.356 599.67V601.168L973.22 602.122Z" fill="#E6E6E6" stroke="white" stroke-width="0.5" stroke-linecap="round" stroke-linejoin="round"/>
<path d="M886.453 636.036L885.773 636.99L884.821 640.531L884.413 644.344L884.277 647.749L883.325 650.882L882.781 654.014L882.373 654.151L881.693 654.014L881.013 654.151L880.877 654.287L863.605 649.929L859.797 649.792L859.661 650.201L859.797 651.154V651.699V652.108L859.661 652.652L859.389 653.061L858.981 653.333L858.573 653.47L857.757 653.742L849.733 654.014L848.781 653.742L848.237 653.606L847.693 653.333L847.285 653.061L847.013 652.516V651.699L847.149 650.337L847.557 647.749L847.285 646.387L845.789 643.663L844.293 643.391L838.173 642.165L832.461 641.212H831.509L830.285 641.621L829.061 642.302L828.517 642.71L828.109 643.255L825.797 646.796L825.117 647.477L819.677 649.656L819.133 649.792L818.181 649.52L816.957 648.839L812.741 645.434L810.837 644.344H809.477L799.141 646.796H798.733L791.933 650.201L790.301 651.29L789.213 651.563H786.629L781.869 650.337L781.325 649.929L781.053 649.384L780.917 648.294L780.781 647.613V646.932L780.917 645.57V644.072L780.645 643.527L780.509 643.119L778.605 641.621L776.429 640.259L772.757 636.445L771.941 635.356L771.533 634.675L771.397 634.13L770.581 631.133L770.445 630.725L770.173 630.316L769.901 630.044L769.493 629.771L769.085 629.635L768.405 629.499H766.093L765.277 629.635L764.733 630.044L764.597 630.452L764.461 630.997L764.597 632.359V632.904L764.461 633.313L764.189 633.721L763.917 634.13L762.421 635.219L760.789 636.036L759.973 636.309L729.237 635.492L725.293 627.865L724.477 625.005V624.46L726.653 619.693L726.789 618.876L726.925 618.059L727.061 616.697L726.925 615.879L724.749 607.98L724.205 607.163L723.661 606.482L722.165 605.256L719.989 602.805L719.445 601.579L719.581 601.17L719.989 600.762L720.397 600.625L721.077 600.353L724.613 599.944L728.965 598.719L729.509 598.31L730.053 597.765L730.325 596.131L730.597 595.586L731.005 594.905L731.413 594.769H731.957L734.405 596.131L736.445 597.084L738.485 597.493L740.525 597.357L741.477 597.084L742.157 596.676L742.565 595.586L743.789 590.683L744.061 590.138L745.149 587.687L745.421 586.87L745.557 586.325L745.421 585.916L745.149 585.508L744.741 585.371L744.197 585.235L743.789 585.099L743.517 584.827V584.146L745.421 581.422L745.557 580.877L745.693 580.605L745.829 580.196L745.965 579.651L746.101 577.744V576.655L746.237 576.11L746.373 575.565L746.781 574.612L747.189 574.203L747.733 573.931L748.685 574.067L755.349 576.927L756.709 577.2L756.981 577.336L757.661 577.472L759.565 580.06L760.653 581.286L763.645 582.375L765.005 583.465L766.365 584.146L767.861 583.737L770.989 585.644L774.117 586.325L789.621 582.92L790.437 582.511L795.061 578.153L795.741 577.336L796.149 576.655V575.838L795.877 575.293L795.469 574.748L795.061 574.476L794.245 574.34H793.701L792.341 574.612H791.797L791.525 574.34L791.389 573.931L791.525 573.114L793.293 568.756L793.973 566.576L794.381 565.351L794.925 564.125L796.829 561.537L797.101 560.856L797.237 560.039L796.149 559.086L795.877 558.541L795.741 557.86V557.315L796.693 555.136L797.237 553.093L796.965 549.688L796.149 547.509L796.285 546.692L796.557 546.147L798.053 545.466L798.461 545.057L799.141 543.968V543.151L798.869 542.47L798.325 541.652L797.645 539.882V538.384L797.917 536.886L798.869 534.298L799.413 533.072L800.093 531.983L800.909 531.029L801.861 530.348L802.813 530.076L803.765 530.212L804.853 530.757L806.349 531.846L807.709 532.527L808.933 533.072L810.157 533.208L811.517 533.072L813.149 532.255L818.453 528.714L819.133 528.441L819.677 528.578L820.493 528.986L822.533 530.757L824.981 533.617L825.253 534.025L825.389 534.434L825.253 535.387L824.845 536.886V537.294L824.981 537.567L825.117 537.975L825.389 538.52L826.205 539.61L827.565 540.971L828.109 541.38L837.221 541.652L840.213 542.606L841.437 542.878L842.525 543.151L844.157 543.014L846.061 542.606H846.469L846.877 542.878L847.285 543.423L847.829 544.649L848.101 545.602L848.237 546.419V547.781L847.829 549.143L847.149 550.641L847.013 551.186L846.877 551.731V552.412L847.013 556.906L847.149 558.405L848.237 563.308L848.373 563.852L848.645 564.261L849.189 564.67L850.685 565.487L851.093 565.759L851.229 566.168V566.849L851.093 567.394L850.957 568.075L851.229 568.892L853.269 571.207L853.133 573.522L852.861 574.34L852.589 574.612L852.317 574.884L850.957 575.429L850.549 575.565L850.413 575.974L850.277 576.519L850.685 580.741L850.821 581.286L851.229 581.694L852.045 581.83L852.589 581.967L853.269 581.83L853.677 581.694L855.037 581.013L855.445 580.877H855.853L856.397 581.013L856.941 581.286L857.213 581.967L857.349 583.192L857.077 583.873V584.554L857.213 585.099L859.797 587.823L860.749 587.551L861.021 587.414L861.429 587.278L862.245 588.776L867.957 590.411H868.773H869.861L870.405 590.275H870.949L872.037 590.956L872.581 591.228L873.261 591.364L873.941 591.092L875.573 591.228L888.085 593.679L889.309 595.586L891.213 604.303L890.941 605.12L889.853 605.392H889.309L887.405 605.801L885.773 606.482L883.597 607.571L882.509 608.525L881.829 609.07L881.693 609.478L881.557 610.023V611.521V612.338L881.693 612.883L881.829 613.428L881.965 614.381V614.926V616.016L881.693 616.56L881.421 616.969L880.741 617.241L880.197 617.378L878.021 617.514L877.069 617.65L876.661 618.603L876.389 619.284L876.253 625.822L876.933 627.32L878.021 628.546L881.013 631.27L886.453 636.036Z" fill="#E6E6E6" stroke="white" stroke-width="0.5" stroke-linecap="round" stroke-linejoin="round"/>
<path d="M880.878 654.284L880.334 654.829L879.926 655.237L879.79 655.918L879.654 657.144L880.198 660.957L882.238 662.864L890.942 665.86L896.79 666.133L899.646 667.359L899.918 667.631L900.462 668.721L900.87 669.129L901.414 669.265L902.638 668.993L903.046 669.129L903.726 670.219L903.862 671.581L903.046 678.663L903.454 680.978V681.114L902.366 681.932L901.142 682.476L895.838 682.613L895.022 682.885L894.07 683.294L893.662 683.566L893.254 683.838L892.71 684.383L892.302 685.064L892.166 685.745V686.562L892.71 688.741L893.118 692.01L894.886 695.279L895.022 695.687L895.158 696.096L895.022 696.641V697.186L894.886 697.73L894.75 698.275V698.82V699.229V699.773L894.886 700.182L895.022 700.727L895.294 701.68V702.089V702.634L895.022 703.315L894.75 704.132L893.934 705.221L893.662 706.038L893.39 706.719V708.354L893.254 708.762L893.118 709.035H892.574L892.166 708.762L890.806 707.4L890.534 707.128L890.126 706.856L889.718 706.719L888.63 706.311L887.542 706.175L886.454 706.311L885.502 706.447L884.55 706.992L883.87 707.537L883.326 707.945L883.054 708.49L878.702 716.798L877.886 717.887L876.662 719.113L875.982 719.658L874.894 720.339L872.038 721.02L871.494 722.382L870.678 723.608L869.318 725.106L866.734 727.285L866.326 727.83L865.782 729.056L865.374 730.69L864.694 735.321L864.014 737.5L863.878 738.045L862.926 738.998L854.902 745.535L850.822 747.851L850.006 748.123L847.422 748.532L846.742 748.94L846.198 749.757L844.974 751.528L844.294 753.435L844.022 754.524L843.614 755.614L843.07 756.703L842.662 757.657L833.822 765.965L833.278 766.646L832.734 768.28L832.462 771.821L832.054 773.047L830.83 775.362L830.422 775.635L827.566 772.366L825.662 771.14L823.622 770.323L822.534 770.187L818.59 769.778L816.686 770.459L814.51 770.323L812.334 769.642L805.806 766.646L805.398 766.373L802.542 763.105L800.502 759.564L799.822 759.019L797.102 758.883L792.478 757.521L789.758 755.341L789.622 755.069H789.35L787.99 753.979L785.95 752.89L781.19 752.073L779.558 751.256L778.334 749.894L776.702 748.395L775.342 747.987H773.71L772.35 748.395H771.534L769.494 749.213L768.542 749.894H767.318L756.846 748.395L751.27 747.033H749.638L749.502 746.897V746.353L749.774 746.08L733.726 735.048L723.118 727.421L722.03 725.787L713.462 717.887L713.054 717.751L710.47 717.343L709.11 716.389L708.158 715.981L704.35 712.984L703.262 711.895L700.814 710.941L697.822 710.805L696.19 709.58L695.238 708.354L690.342 704.404L689.118 703.995L688.03 703.178L686.534 702.634L676.47 695.551L666.406 685.609L672.798 678.527L676.198 676.211L686.126 672.126L690.07 670.764L702.038 666.405L702.446 666.133L702.718 665.724L702.99 664.907L702.854 664.499L702.718 663.954L702.446 663.545L700.134 660.821L699.59 660.004L699.318 659.187L699.182 658.778L699.046 658.37V657.825L699.182 657.28L699.59 656.599L700.27 655.646L705.846 649.653L706.254 649.245L706.798 648.972L707.614 648.836L708.294 648.972L709.11 648.7L710.062 647.883L717.27 640.664L720.67 638.076L727.742 636.442L729.238 635.489L759.974 636.306L760.79 636.034L762.422 635.216L763.918 634.127L764.19 633.718L764.462 633.31L764.598 632.901V632.356L764.462 630.994L764.598 630.449L764.734 630.041L765.278 629.632L766.094 629.496H768.406L769.086 629.632L769.494 629.768L769.902 630.041L770.174 630.313L770.446 630.722L770.582 631.13L771.398 634.127L771.534 634.672L771.942 635.353L772.758 636.442L776.43 640.256L778.606 641.618L780.51 643.116L780.646 643.524L780.918 644.069V645.567L780.782 646.929V647.61L780.918 648.291L781.054 649.381L781.326 649.926L781.87 650.334L786.63 651.56H789.214L790.302 651.288L791.934 650.198L798.734 646.793H799.142L809.478 644.341H810.838L812.742 645.431L816.958 648.836L818.182 649.517L819.134 649.789L819.678 649.653L825.118 647.474L825.798 646.793L828.11 643.252L828.518 642.707L829.062 642.299L830.286 641.618L831.51 641.209H832.462L838.174 642.162L844.294 643.388L845.79 643.661L847.286 646.384L847.558 647.746L847.15 650.334L847.014 651.696V652.513L847.286 653.058L847.694 653.33L848.238 653.603L848.782 653.739L849.734 654.011L857.758 653.739L858.574 653.467L858.982 653.33L859.39 653.058L859.662 652.649L859.798 652.105V651.696V651.151L859.662 650.198L859.798 649.789L863.606 649.926L880.878 654.284Z" fill="#E6E6E6" stroke="white" stroke-width="0.5" stroke-linecap="round" stroke-linejoin="round"/>
<path d="M903.448 681.117L904.672 682.343L913.92 683.841H915.824L921.4 681.934L922.352 681.39L923.304 681.117L924.392 681.253L925.616 681.662L926.16 681.934L927.248 683.024L928.472 683.296L929.696 682.752L930.92 681.934L931.464 681.798H932.008H932.552L933.232 681.934L934.32 683.296L936.768 688.744L938.128 690.651L938.808 691.877L939.624 693.647L939.488 695.69L938.808 697.325L937.992 698.55L936.904 699.504L935.68 700.185L933.912 700.593H932.688L931.872 701.002L931.6 703.045L931.872 703.998L932.28 704.815L932.552 705.632V706.722L932.144 707.267L930.376 708.629L929.696 709.991L929.968 711.625L930.92 715.166L931.056 716.937L930.784 722.248L931.056 724.291L931.6 725.517L933.368 728.241L933.776 729.603L933.912 732.599L934.048 733.825L934.864 735.187L937.584 737.911L940.304 742.814L941.528 744.04L945.2 746.219L951.048 751.394L952.68 754.118L953.088 757.659L951.864 763.107L950.096 768.147L947.24 772.369L946.424 774.139L945.88 775.774L945.472 777.136L944.928 778.361L944.248 778.906L943.84 779.178L942.752 779.451L939.352 779.996L937.176 780.677L935.816 782.039L932.824 791.3L930.648 795.522L925.344 802.877L921.536 806.69L917.864 811.321L914.736 816.769L912.696 822.353L912.424 826.166L913.92 833.385L914.056 837.198L913.784 840.467L912.968 843.463L911.608 846.187L911.2 847.549L910.928 845.915L910.112 844.689L908.752 843.872L907.256 843.463L904.672 843.599L903.856 843.463L903.04 843.055L901.408 841.965L900.592 841.693H899.776L898.416 842.101L897.6 842.237L897.192 842.646L896.784 843.599L896.24 844.417L895.424 844.689L894.2 843.736L892.84 839.922L891.208 839.105L889.712 839.514L888.352 840.467L886.04 842.918L884.544 844.008L883.184 844.825L881.552 845.234L879.784 845.37L878.016 845.779L875.296 847.549L873.664 847.821L872.032 847.277L871.216 845.779L870.672 844.144L869.992 842.646L868.496 841.284L865.232 840.058L863.872 839.105L863.192 837.743L861.968 833.793L861.016 832.976L859.52 832.567L856.664 830.388L855.304 829.844L851.904 829.707L845.24 831.342L835.856 831.75L835.04 832.023L833.68 833.248L832.864 833.521L830.96 833.385L830.008 833.248L825.248 831.206L823.616 831.069L821.712 831.206L820.488 830.661L820.352 830.252L820.76 829.707V828.754L821.168 828.073L822.936 826.711L824.84 825.621L824.704 824.941L824.976 824.396V822.08L824.16 818.675L821.168 816.632L820.896 815.815L820.76 814.045L821.032 812.274L821.712 804.511L822.12 800.834L821.712 798.518V796.475L822.392 792.662L823.48 789.938L824.704 788.167L825.928 786.942L826.744 784.899L827.832 783.537L831.096 781.766L831.776 781.085L832.184 779.723V778.361L831.64 777.136L830.416 775.637L830.824 775.365L832.048 773.05L832.456 771.824L832.728 768.283L833.272 766.648L833.816 765.968L842.656 757.659L843.064 756.706L843.608 755.617L844.016 754.527L844.288 753.437L844.968 751.531L846.192 749.76L846.736 748.943L847.416 748.534L850 748.126L850.816 747.853L854.896 745.538L862.92 739.001L863.872 738.047L864.008 737.502L864.688 735.323L865.368 730.693L865.776 729.058L866.32 727.833L866.728 727.288L869.312 725.109L870.672 723.61L871.488 722.385L872.032 721.023L874.888 720.342L875.976 719.661L876.656 719.116L877.88 717.89L878.696 716.801L883.048 708.493L883.32 707.948L883.864 707.539L884.544 706.994L885.496 706.45L886.448 706.313L887.536 706.177L888.624 706.313L889.712 706.722L890.12 706.858L890.528 707.131L890.8 707.403L892.16 708.765L892.568 709.037H893.112L893.248 708.765L893.384 708.356V706.722L893.656 706.041L893.928 705.224L894.744 704.134L895.016 703.317L895.288 702.636V702.091V701.683L895.016 700.729L894.88 700.185L894.744 699.776V699.231V698.823V698.278L894.88 697.733L895.016 697.188V696.644L895.152 696.099L895.016 695.69L894.88 695.282L893.112 692.013L892.704 688.744L892.16 686.565V685.748L892.296 685.067L892.704 684.386L893.248 683.841L893.656 683.569L894.064 683.296L895.016 682.888L895.832 682.615L901.136 682.479L902.36 681.934L903.448 681.117Z" fill="#E6E6E6" stroke="white" stroke-width="0.5" stroke-linecap="round" stroke-linejoin="round"/>
<path d="M496.539 250.872L504.155 264.083L507.827 267.352L527.275 272.8L528.363 273.481V274.434L527.955 275.66L508.371 312.841L489.875 348.389L485.931 357.786L484.299 377.943V379.169L484.435 380.122L492.731 395.376L494.091 398.373L493.819 398.917L493.003 399.871L477.499 408.587L475.867 409.949L476.003 411.175L476.547 412.537L507.419 455.166L527.955 483.768V485.13L511.771 492.893L507.963 494.119L506.875 493.846L505.787 493.301L505.515 492.893L496.947 479.137L484.571 465.517L480.355 462.249L477.091 460.342L473.691 458.844L459.819 455.439H456.011L454.515 455.711L453.155 456.392L452.067 457.346L450.979 458.708L448.123 464.292L446.899 465.245L444.995 465.381L443.227 464.7L442.819 464.428L441.731 463.883L440.915 461.023L439.963 459.661L436.155 455.439L434.795 454.622L430.579 453.805L428.947 453.124L426.771 451.081L424.187 448.22L423.371 447.676L422.419 447.267L420.515 446.859L403.515 431.332L401.203 428.744L399.299 425.339L398.075 421.526L397.259 420.028L396.171 419.347L392.635 419.211L391.139 418.802L389.915 417.985L388.827 416.759L386.923 413.082L386.107 410.63L384.067 407.634L383.523 406V401.641L383.387 399.598L382.299 398.781L378.763 398.373L375.091 397.555L374.411 397.147L372.779 395.921L371.691 396.057L371.283 396.33L369.787 397.555L366.115 400.143L364.619 400.824H362.715L361.627 401.097L361.083 401.505L360.947 401.914V402.322L361.083 402.731L362.035 404.501L362.171 405.455L361.219 407.634L360.539 408.451L360.403 408.587L359.859 407.77L358.771 406.136L356.595 404.229L352.515 402.731L349.251 401.505L349.115 401.369H347.755L345.307 401.505L344.355 401.097L343.539 399.735L343.675 398.373L344.491 397.419L345.715 397.011L350.067 395.376L349.795 391.563L348.435 386.796L348.707 384.344L349.115 382.301L350.203 381.348L351.699 380.803L352.923 379.85L353.195 378.216L352.243 376.99L351.155 376.309L350.611 376.036L349.931 375.764L349.387 375.492L347.347 374.811L344.899 372.495L342.859 369.363L342.723 369.227L342.587 368.954L340.547 366.775L337.283 366.366L334.155 366.775L327.899 366.23L317.835 367.865L316.611 368.001H316.339L315.523 368.137H315.387L312.667 368.546H308.859L307.091 367.865L304.235 364.732L302.467 364.051L298.795 363.643L296.755 362.553L295.803 360.782L294.987 353.292L294.307 351.521L293.219 349.887L288.731 344.984H288.595L286.963 343.894L285.059 344.166L283.019 345.12L282.747 345.256L280.979 345.665L278.803 345.801L275.539 345.256L270.507 342.941L265.747 338.446L250.923 320.877L250.243 320.06L248.475 319.106L247.115 321.285L246.163 329.593L244.803 332.181L244.531 332.454L241.539 333.407L237.867 333.135L234.195 332.317L227.803 329.73L226.443 329.185L224.675 329.049L223.315 329.457L219.507 331.909L216.787 332.998L215.427 334.088L214.747 335.45L215.155 337.357L216.515 338.582L225.627 342.805L228.075 344.847L230.387 348.252L232.291 352.883L237.595 361.6L240.587 365.005L241.403 365.822L241.675 366.639L241.403 367.456L240.587 368.001H240.179L235.827 368.682L234.739 368.409L234.603 368.137L233.923 367.047V365.549L234.331 363.915L234.467 362.144L234.195 360.51L233.651 358.467L231.883 356.152L229.435 354.381L222.363 350.976L222.227 350.84L220.731 350.704H220.051L219.371 350.84L216.787 351.93L215.699 352.066L214.475 351.385L212.843 348.933L211.755 347.98L210.395 347.435H208.763L207.267 347.708L205.907 348.252L205.091 349.206V349.342L204.819 349.887L204.547 350.431L202.643 352.474L201.691 353.019L200.739 353.428L199.515 354.517L199.787 356.152L199.923 357.105L201.419 360.374L201.555 361.872L200.875 364.187L198.019 370.997L196.931 372.087L195.979 372.359L194.891 372.768L194.211 373.04L193.531 374.266L194.075 375.764L195.027 376.854L195.299 377.807L193.667 378.897L192.307 379.305H192.171L188.499 379.033H187.411L185.915 379.305L181.971 381.348L180.203 381.62L179.523 381.893L178.571 382.029L168.371 380.259L161.571 380.531L154.771 383.8L148.923 389.52L144.979 397.011L142.259 401.097L139.267 403.276L137.771 404.093L135.459 405.182L132.331 406.544L130.291 409.405V413.218L131.651 419.619L131.923 420.845V421.526L131.787 424.386L131.243 427.519L131.107 430.651L132.331 434.056L133.963 436.644L134.779 439.231L135.051 441.955V445.36L135.323 448.084L136.275 450.808L136.547 451.217L137.771 453.124L139.267 454.894L140.355 455.711L141.443 456.256L142.803 456.528L144.979 457.073L145.387 457.346L145.523 457.482L145.387 458.163L144.571 459.116L143.075 460.206L139.675 461.976L138.315 463.611L136.139 467.697L135.323 468.105L134.643 468.514L128.115 467.152L125.803 466.607L119.003 465.245L102.955 464.292L100.371 464.155L85.4108 463.338L71.9468 462.657L64.1948 462.249L61.8828 462.112V461.704V238.342V157.578V97.6511L111.931 81.58L132.331 74.9064L171.091 62.3763L177.483 60.4696L186.459 57.6094L195.435 54.8855L204.547 52.1616L208.627 50.7996L212.843 49.5739L216.923 48.3481L221.139 47.1223L225.491 45.8965L229.843 44.5346L234.195 43.3088L238.547 42.0831L244.395 40.3125L246.027 40.5849L248.067 41.4021L248.475 41.6745L247.931 42.4916L247.387 43.1726L247.251 43.9898L247.115 45.6242L246.707 47.5309L246.299 48.4843L246.027 49.4377L245.891 50.1186V51.6168L245.619 53.3873V54.2045V54.3407V55.9751L245.483 56.3837L244.395 57.2008L243.851 57.7456L242.083 60.3334L241.403 60.7419L241.131 61.0143L239.907 61.9677L238.955 64.0107L236.099 67.9604L235.827 68.6413L235.691 69.4585L235.419 71.91L235.555 73.6806L235.147 74.9064L233.923 76.9493L233.379 79.8094L232.835 84.3039L231.747 87.164L229.571 89.888L228.483 91.3861V91.6585L228.075 92.6119L227.667 94.791V96.153L226.715 98.8769L226.307 101.465L224.947 103.235L223.043 107.049V107.73L222.499 109.092L222.091 110.998L221.955 113.314L222.499 118.489L223.179 121.622L224.539 125.163L226.307 129.385L228.891 135.378L229.163 138.101L228.619 141.37L227.939 142.46L226.851 142.187L225.899 142.051L224.947 142.732L223.723 144.639L223.179 146.001L222.907 147.908L223.043 152.538L223.723 154.445L224.811 155.535L226.035 155.943L227.939 156.216H230.931H232.291L236.099 154.173L240.859 148.044L243.851 141.506L245.347 132.517L247.795 122.575L246.571 120.941H248.883L250.107 119.17L251.059 116.31L250.923 112.497L249.971 110.317L247.795 108.274L246.979 106.368L247.115 104.87L248.475 102.827L248.747 100.375L248.475 98.7407L247.115 97.2426L245.483 96.9702L252.419 90.2966L254.323 87.164L255.275 84.4401V82.5334L253.915 76.8131L252.283 72.8634L251.467 70.6843V66.7346L252.011 61.4229L253.779 52.7064L254.459 50.5272L257.315 47.8033L259.627 49.3015L266.699 54.0683L275.811 60.3334L282.067 64.5554L286.827 67.688L299.203 76.1321L312.667 85.1211L319.875 90.0242L402.699 151.312L420.243 164.387L421.875 165.477L428.811 170.652L429.083 172.832L429.763 175.147L433.979 182.093L442.275 191.082L446.219 195.304L450.163 199.662L455.195 205.382L459.411 210.285L463.491 215.052L467.707 219.819L471.787 224.586L475.867 229.353L479.947 233.984L483.891 238.751L487.971 243.381L493.411 249.646L494.907 250.191L496.267 250.872H496.539Z" fill="#E6E6E6" stroke="white" stroke-width="0.5" stroke-linecap="round" stroke-linejoin="round"/>
<path d="M837.491 478.184V478.456L828.651 482.134L828.107 483.632L827.155 484.721L828.379 498.069L828.515 498.614L828.651 499.022L829.059 499.839L829.739 500.656L830.147 500.929L831.099 501.474L837.627 503.244L838.035 503.653L838.307 503.925L838.443 504.47V505.151V506.104L838.307 507.739V509.373L838.443 509.782L838.987 511.416L840.619 514.276L838.579 519.452L827.563 540.971L826.203 539.609L825.387 538.519L825.115 537.974L824.979 537.566L824.843 537.293V536.885L825.251 535.387L825.387 534.433L825.251 534.025L824.979 533.616L822.531 530.756L820.491 528.985L819.675 528.577L819.131 528.44L818.451 528.713L813.147 532.254L811.515 533.071L810.155 533.207L808.931 533.071L807.707 532.526L806.347 531.845L804.851 530.756L803.763 530.211L802.811 530.075L801.859 530.347L800.907 531.028L800.091 531.982L799.411 533.071L798.867 534.297L797.915 536.885L797.643 538.383V539.881L798.323 541.652L798.867 542.469L799.139 543.15V543.967L798.459 545.056L798.051 545.465L796.555 546.146L796.283 546.691L796.147 547.508L796.963 549.687L797.235 553.092L796.691 555.135L795.739 557.314V557.859L795.875 558.54L796.147 559.085L797.235 560.038L797.099 560.855L796.827 561.536L794.923 564.124L794.379 565.35L793.971 566.575L793.291 568.755L791.523 573.113L791.387 573.93L791.523 574.339L791.795 574.611H792.339L793.699 574.339H794.243L795.059 574.475L795.467 574.747L795.875 575.292L796.147 575.837V576.654L795.739 577.335L795.059 578.152L790.435 582.51L789.619 582.919L774.115 586.324L770.987 585.643L767.859 583.736L766.363 584.145L765.003 583.464L763.643 582.374L760.651 581.285L759.563 580.059L757.659 577.471L756.979 577.335L756.707 577.199L755.347 576.926L748.683 574.066L747.731 573.93L747.187 574.202L746.779 574.611L746.371 575.564L746.235 576.109L746.099 576.654V577.744L745.963 579.65L745.827 580.195L745.691 580.604L745.555 580.876L745.419 581.421L743.515 584.145V584.826L743.787 585.098L744.195 585.234L744.739 585.371L745.147 585.507L745.419 585.915L745.555 586.324L745.419 586.869L745.147 587.686L744.059 590.137L743.787 590.682L742.563 595.585L742.155 596.675L741.475 597.083L740.523 597.356L738.483 597.492L736.443 597.083L734.403 596.13L731.955 594.768H731.411L731.003 594.904L730.595 595.585L730.323 596.13L730.051 597.764L729.507 598.309L728.963 598.718L724.611 599.944L721.075 600.352L720.395 600.625L719.987 600.761L719.579 601.169L719.443 601.578L719.987 602.804L722.163 605.255L723.659 606.481L724.203 607.162L724.747 607.979L726.923 615.879L727.059 616.696L726.923 618.058L726.787 618.875L726.651 619.692L724.475 624.459V625.004L725.291 627.864L729.235 635.491L727.739 636.444L720.667 638.079L720.531 635.491L720.395 634.81L719.715 632.358L719.171 631.269L718.899 630.724L717.811 629.226L716.451 627.864L715.363 627.319L713.731 626.638L712.235 625.821L711.691 623.914L711.419 621.871V620.373L710.875 618.194L709.515 616.015L700.947 611.929L700.267 610.839L699.179 610.703L696.051 612.065H694.691L693.603 611.52L693.467 610.703L693.059 609.886L692.923 609.341L689.523 607.434L687.483 606.072L682.315 598.854L681.227 596.539L682.179 594.087L683.403 591.499L685.715 588.503L685.987 588.094L686.531 587.55L687.075 586.324L691.563 584.281L692.787 583.328L694.011 582.102L695.099 580.74L698.499 573.658L699.587 572.841L700.267 572.704L700.811 572.296L701.219 572.023L701.763 571.887L703.939 571.615V571.342L703.667 570.661L702.579 569.299L700.403 567.12L699.587 565.758L699.451 565.35L699.587 565.213L699.859 565.077L700.539 564.396L701.763 560.855L699.995 559.085L699.587 557.178V556.361L699.723 555.544L699.859 554.59L700.539 553.773L701.763 553.092L704.211 552.683H705.843L707.339 553.092L708.699 554.318L710.331 555.407L711.963 555.952L720.395 556.088L721.211 554.454L722.843 549.279L724.203 547.917L725.699 546.146L727.603 540.153L727.739 538.928L728.555 537.702L729.099 537.157L729.779 537.021H730.595L734.267 537.838H735.219L735.355 536.748L735.083 535.659L734.947 533.752V531.437L735.083 528.849L735.355 526.398L737.123 520.541L733.587 521.494L711.827 519.996L704.619 518.226L702.171 516.864L699.723 514.821L698.635 511.961L697.955 509.373L696.459 499.839L695.779 497.524L694.963 497.388L692.651 500.656L690.339 501.746L687.211 502.427L677.691 502.836L675.243 503.789L673.883 504.47L671.707 513.05L670.075 514.548L650.491 512.233L647.499 511.144L646.411 508.964V502.699L646.003 499.431L644.507 497.252L643.147 496.026L641.787 495.753L640.291 496.162L638.795 497.388L637.571 499.294L633.219 508.283L628.187 515.91L619.483 518.907L619.619 517.136L617.035 514.412L615.403 511.552L593.643 498.069L582.627 491.804L573.107 488.126L566.715 486.628L564.947 485.675L555.291 468.378L543.187 454.077L541.419 450.945L539.107 445.633L532.987 445.497L507.419 455.167L476.547 412.537L476.003 411.175L475.867 409.95L477.499 408.588L493.003 399.871L493.819 398.918L494.091 398.373L492.731 395.377L484.435 380.123L484.299 379.169V377.944L485.931 357.787L489.875 348.389L508.371 312.842L527.955 275.66L528.363 274.434V273.481L527.275 272.8L507.827 267.352L504.155 264.083L496.539 250.872L502.387 249.783L504.971 249.238L507.555 248.829L510.139 248.285L512.587 247.876L516.667 247.059L520.747 246.378L524.827 245.561L528.907 244.88L535.435 243.79L542.099 242.701L548.627 241.611L555.155 240.521L561.819 239.432L568.347 238.342L575.011 237.253L581.539 236.163L592.555 237.253L603.571 238.206L614.451 239.296L625.467 240.249L635.531 241.202L645.459 242.02L655.523 242.973L665.451 243.926L669.395 244.199L670.619 243.926L671.979 243.518L679.187 239.432L686.123 235.618L693.331 231.669L700.267 227.719L701.627 227.174L702.851 226.766L704.075 226.902L705.163 227.038L706.387 228.128L707.611 229.217L715.363 239.432L723.115 249.51L726.787 253.324L730.323 257.137L737.803 261.904L745.147 266.535L746.643 267.761L748.003 269.123L754.123 281.789L758.067 289.825L763.507 300.993L768.131 310.663H768.675L769.355 310.799L770.035 310.39L770.443 311.48L771.939 310.799L772.619 310.39L776.835 308.483L779.827 306.985L782.819 305.623L784.043 304.942L790.027 302.218L788.531 323.874L787.035 348.253L786.899 350.84L786.627 353.428L786.355 354.245L785.947 355.063L785.131 355.471L784.315 355.744L784.043 356.425L783.771 357.106V360.102L783.635 376.173L783.363 395.104V395.649L783.499 396.194V396.466V397.556L783.363 397.964V398.237V398.509V399.599L783.499 401.914L785.131 402.186L786.491 402.323H786.899L787.579 402.459L789.755 402.731L790.979 402.867L794.107 403.14L798.595 403.685L800.363 403.957L804.851 404.502L806.075 404.638L812.739 405.455L816.547 405.864L817.363 406H817.635L820.083 406.409L820.491 409.269L821.715 421.526L823.211 429.562L823.347 431.06L823.891 437.598V438.142L824.027 438.551L824.707 446.995L825.659 458.844L826.067 463.202V463.747L826.203 466.199L826.611 468.787L827.699 468.923L830.011 469.059L831.507 469.195L832.459 473.69L834.091 475.732L835.723 477.639L837.491 478.184Z" fill="#E6E6E6" stroke="white" stroke-width="0.5" stroke-linecap="round" stroke-linejoin="round"/>
<path d="M360.542 408.452L361.222 407.635L362.174 405.456L362.038 404.502L361.086 402.732L360.95 402.323V401.915L361.086 401.506L361.63 401.097L362.718 400.825H364.622L366.118 400.144L369.79 397.556L371.286 396.33L371.694 396.058L372.782 395.922L374.414 397.148L375.094 397.556L378.766 398.373L382.302 398.782L383.39 399.599L383.526 401.642V406L384.07 407.635L386.11 410.631L386.926 413.083L388.83 416.76L389.918 417.986L391.142 418.803L392.638 419.211L396.174 419.348L397.262 420.029L398.078 421.527L399.302 425.34L401.206 428.745L403.518 431.333L420.518 446.859L422.422 447.268L423.374 447.676L424.19 448.221L426.774 451.081L428.95 453.124L430.582 453.805L434.798 454.622L436.158 455.44L439.966 459.662L440.918 461.024L441.734 463.884L442.822 464.429L443.23 464.701L444.998 465.382L446.902 465.246L448.126 464.292L450.982 458.708L452.07 457.346L453.158 456.393L454.518 455.712L456.014 455.44H459.822L473.694 458.845L477.094 460.343L480.358 462.249L484.574 465.518L496.95 479.138L505.518 492.894L505.79 493.302L506.878 493.847L507.966 494.119L511.774 492.894L523.47 506.241L525.782 509.918L526.734 513.051L522.926 521.222L508.918 538.792L508.102 537.566L506.606 536.476L504.158 533.072L503.206 531.029L501.71 525.172L500.894 523.946L498.446 521.359L497.766 520.133L497.494 515.911L496.814 514.821L496.406 513.187L495.998 512.642L493.958 505.696L493.686 504.743L494.502 503.108L494.23 502.427L494.094 500.248L493.958 499.431L493.822 497.933L494.23 495.345L493.822 494.8L493.142 494.392L493.006 492.894L492.734 492.485V492.213L492.326 490.987L491.782 490.17L491.374 489.761L487.022 482.407L485.662 480.908L469.478 468.923L467.982 468.242L467.574 467.425L467.302 467.697L467.03 467.834L463.222 466.199L456.286 464.292L453.566 464.02L451.934 464.837L450.982 466.88L450.302 470.285L448.534 471.238L447.174 474.235L445.134 476.55L442.686 477.776L439.83 477.912L436.974 476.686L429.494 471.375H429.086L428.814 470.83L428.542 471.238V471.375H428.27H427.862L427.046 469.468V468.514L426.774 468.378L426.638 468.514L426.366 468.378V468.106L426.094 469.332L425.414 468.378L425.55 467.425H425.414L425.006 467.834L424.87 467.697L424.734 467.016L424.326 467.97H424.462V471.511H424.19L423.646 471.102L422.83 470.694L422.422 470.421V469.468L422.286 469.604L418.342 469.059L409.094 467.97L399.574 468.242L392.094 471.375H391.958H391.278L387.198 472.056H385.702L384.614 471.647L379.446 468.514L374.958 464.565L370.198 461.16L367.75 460.887L366.798 460.479L362.446 457.346L359.59 454.895L357.006 453.124L355.782 451.081V450.4V449.719L355.646 448.902L356.734 444.816L357.686 441.275V440.73L359.046 439.641L359.454 439.913L360.406 439.368V438.824L360.678 438.688L360.542 438.279L360.814 438.007L361.63 437.189H362.038L362.718 437.462L362.99 437.326L362.718 436.645V436.372L363.126 436.236V435.964L362.718 434.874L362.99 434.465L362.718 433.648L362.582 432.559L361.63 430.652L360.678 429.562L358.502 427.247L356.87 424.659L355.646 422.753L355.238 420.982L354.422 419.348L354.966 418.667L355.646 418.258L355.782 417.577L357.686 416.351L359.862 416.079L362.582 416.896L365.03 418.53L366.526 419.211L367.342 419.075L367.886 419.211L369.246 419.075L370.47 420.029L371.694 420.437L372.646 420.301L373.19 420.573L373.734 419.62V418.939L372.918 417.849L371.15 416.351L369.382 414.308L367.342 413.491L365.71 413.083L362.31 411.04L361.494 410.086L360.95 408.997L360.542 408.452Z" fill="#E6E6E6" stroke="white" stroke-width="0.5" stroke-linecap="round" stroke-linejoin="round"/>
<path d="M720.67 638.078L717.27 640.665L710.062 647.884L709.11 648.701L708.294 648.973L707.614 648.837L706.798 648.973L706.254 649.246L705.846 649.654L700.27 655.647L699.59 656.6L699.182 657.281L699.046 657.826V658.371L699.182 658.78L699.318 659.188L699.59 660.005L700.134 660.822L702.446 663.546L702.718 663.955L702.854 664.5L702.99 664.908L702.718 665.726L702.446 666.134L702.038 666.406L690.07 670.765L686.126 672.127L676.198 676.213L672.798 678.528L666.406 685.61L664.23 683.567L662.87 683.976L661.238 683.022L659.062 683.295L656.614 684.521H655.526L651.718 684.929L651.038 684.112L645.462 680.707L639.206 676.349L638.39 675.532L622.478 664.227L621.526 663.41L617.446 660.55L616.63 656.056L607.246 649.927L606.294 649.246L605.614 648.156L600.99 643.798L597.182 641.074L596.91 639.848L592.422 637.124L588.478 634.4L585.486 632.221L578.822 627.863L562.774 616.422L557.062 612.337L555.43 611.247L545.638 604.165L544.55 603.484L536.662 597.627L532.99 593.95L532.31 593.405L527.142 586.868L526.326 584.416L525.102 579.105L524.83 576.926L525.102 574.883L525.782 573.248L526.19 571.478L525.918 569.435L523.606 564.668L523.334 562.761V560.173L523.062 558.267L522.382 556.632L520.614 552.819L520.206 551.048L519.934 547.099L519.662 546.826V546.281L518.302 545.737L515.31 543.966L513.406 541.923L511.502 541.106L509.462 539.744L508.918 538.791L522.926 521.221L526.734 513.049L525.782 509.917L523.47 506.24L511.774 492.892L527.958 485.129V483.767L507.422 455.166L532.99 445.496L539.11 445.632L541.422 450.944L543.19 454.076L555.294 468.377L564.95 485.674L566.718 486.627L573.11 488.126L582.63 491.803L593.646 498.068L615.406 511.551L617.038 514.411L619.622 517.135L619.486 518.906L628.19 515.91L633.222 508.283L637.574 499.294L638.798 497.387L640.294 496.161L641.79 495.753L643.15 496.025L644.51 497.251L646.006 499.43L646.414 502.699V508.964L647.502 511.143L650.494 512.232L670.078 514.548L671.71 513.049L673.886 504.469L675.246 503.788L677.694 502.835L687.214 502.426L690.342 501.745L692.654 500.656L694.966 497.387L695.782 497.523L696.462 499.838L697.958 509.372L698.638 511.96L699.726 514.82L702.174 516.863L704.622 518.225L711.83 519.995L733.59 521.494L737.126 520.54L735.358 526.397L735.086 528.848L734.95 531.436V533.751L735.086 535.658L735.358 536.748L735.222 537.837H734.27L730.598 537.02H729.782L729.102 537.156L728.558 537.701L727.742 538.927L727.606 540.153L725.702 546.145L724.206 547.916L722.846 549.278L721.214 554.453L720.398 556.087L711.966 555.951L710.334 555.406L708.702 554.317L707.342 553.091L705.846 552.683H704.214L701.766 553.091L700.542 553.772L699.862 554.589L699.726 555.543L699.59 556.36V557.177L699.998 559.084L701.766 560.854L700.542 564.395L699.862 565.076L699.59 565.213L699.454 565.349L699.59 565.757L700.406 567.119L702.582 569.299L703.67 570.66L703.942 571.341V571.614L701.766 571.886L701.222 572.022L700.814 572.295L700.27 572.703L699.59 572.84L698.502 573.657L695.102 580.739L694.014 582.101L692.79 583.327L691.566 584.28L687.078 586.323L686.534 587.549L685.99 588.094L685.718 588.502L683.406 591.499L682.182 594.086L681.23 596.538L682.318 598.853L687.486 606.072L689.526 607.434L692.926 609.34L693.062 609.885L693.47 610.702L693.606 611.519L694.694 612.064H696.054L699.182 610.702L700.27 610.838L700.95 611.928L709.518 616.014L710.878 618.193L711.422 620.372V621.87L711.694 623.913L712.238 625.82L713.734 626.637L715.366 627.318L716.454 627.863L717.814 629.225L718.902 630.723L719.174 631.268L719.718 632.357L720.398 634.809L720.534 635.49L720.67 638.078Z" fill="#E6E6E6" stroke="white" stroke-width="0.5" stroke-linecap="round" stroke-linejoin="round"/>
</svg>

